<svg width="159" height="11" viewBox="0 0 159 11" fill="none" xmlns="http://www.w3.org/2000/svg">
<path fill-rule="evenodd" clip-rule="evenodd" d="M7.40304 2.97771C3.80239 3.2817 1.65735 3.55527 1.31261 3.85927C0.469905 4.52807 2.15526 4.86259 7.47964 4.89298C7.51794 4.89298 145.76 2.40014 145.798 2.40014C152.042 2.18734 152.54 1.9138 152.54 1.39701C152.54 0.728209 150.855 0.272093 147.254 0.0592945C142.504 -0.275104 34.0249 0.819319 7.40304 2.97771ZM148.135 4.4977C146.45 4.5585 36.7446 6.56486 33.9867 6.74725C0.201794 8.72324 -2.40294 9.02733 1.23602 10.4865C2.99804 11.1857 6.33057 11.1856 20.7715 10.3952C55.5906 8.54084 154.723 8.32816 158.209 7.32497C159.818 6.83857 160.048 4.1633 148.135 4.4977Z" fill="#7843CD"/>
</svg>
