<svg width="235" height="139" viewBox="0 0 235 139" fill="none" xmlns="http://www.w3.org/2000/svg">
<path d="M210.845 0.869873H23.86C11.1634 0.869873 0.87085 11.1513 0.87085 23.8342V114.734C0.87085 127.417 11.1634 137.698 23.86 137.698H210.845C223.542 137.698 233.835 127.417 233.835 114.734V23.8342C233.835 11.1513 223.542 0.869873 210.845 0.869873Z" fill="white"/>
<path d="M210.845 138.568H23.8599C10.7035 138.568 0 127.876 0 114.734V23.8342C0 10.692 10.7035 0 23.8599 0H210.845C224.002 0 234.705 10.692 234.705 23.8342V114.734C234.705 127.876 224.002 138.568 210.845 138.568ZM23.8599 1.73972C11.6638 1.73972 1.7416 11.6513 1.7416 23.8342V114.734C1.7416 126.917 11.6638 136.828 23.8599 136.828H210.845C223.041 136.828 232.964 126.917 232.964 114.734V23.8342C232.964 11.6513 223.041 1.73972 210.845 1.73972H23.8599Z" fill="#FBBC05"/>
<path d="M154.252 119.17H85.8581C80.8151 119.17 76.7123 115.071 76.7123 110.034V53.3777C76.7123 48.3401 80.8151 44.2417 85.8581 44.2417H154.252C159.295 44.2417 163.397 48.3401 163.397 53.3777V110.034C163.397 115.071 159.295 119.17 154.252 119.17ZM85.8581 45.4597C81.4872 45.4597 77.9314 49.0117 77.9314 53.3778V110.034C77.9314 114.4 81.4872 117.952 85.8581 117.952H154.252C158.623 117.952 162.178 114.4 162.178 110.034V53.3777C162.178 49.0117 158.623 45.4595 154.252 45.4595H85.8581V45.4597Z" fill="#FBBC05"/>
<path d="M147.388 45.4598H95.913L95.9896 44.7823C97.6284 30.3112 108.66 19.3984 121.65 19.3984C134.64 19.3984 145.672 30.3112 147.311 44.7823L147.387 45.4598H147.388ZM97.2852 44.242H146.015C144.186 30.7252 133.817 20.6164 121.65 20.6164C109.484 20.6164 99.1147 30.7252 97.2853 44.242H97.2852Z" fill="#FBBC05"/>
</svg>
