<svg width="51" height="90" viewBox="0 0 51 90" fill="none" xmlns="http://www.w3.org/2000/svg">
<path fill-rule="evenodd" clip-rule="evenodd" d="M41.1759 71.133C40.5109 71.6539 40.1988 72.4086 40.0651 73.257C39.9914 73.725 39.5642 73.789 39.2428 73.8712C38.9647 73.9427 38.708 73.952 38.4831 74.1815C38.3902 74.2766 38.0999 74.2974 37.9779 74.223C37.5879 73.9853 37.1703 73.8115 36.8103 73.4944C35.5426 72.379 34.6134 70.9993 33.7436 69.5918C32.8563 68.1557 31.9275 66.735 31.2478 65.1773C31.0365 64.6925 31.028 64.6965 31.5599 64.32C31.9925 65.1426 32.3958 65.9778 32.8627 66.7757C33.2331 67.4089 33.681 67.9959 34.1322 68.6584C34.2384 68.3917 34.2359 68.2208 34.0711 67.983C33.1737 66.6867 32.3218 65.3611 31.6461 63.8431C31.7541 63.7727 31.8846 63.6872 32.0143 63.6028C32.0444 63.6286 32.1112 63.6865 32.2256 63.7855V63.245C32.5463 63.181 32.837 63.1234 33.2152 63.0483C33.5102 63.186 33.6503 63.7079 34.1358 63.7727C34.1201 64.3007 34.5816 64.5638 34.8136 64.9496C35.1014 65.4279 35.4915 65.8444 35.7675 66.198C36.0792 66.1565 36.3123 66.1129 36.5475 66.0965C37.3734 66.0385 37.3534 66.0646 37.8678 66.5183C38.4395 67.0224 38.8306 67.7278 39.5678 68.0481C39.6153 68.0685 39.6682 68.1407 39.6707 68.1911C39.6936 68.7216 39.9907 68.9143 40.4887 69.0431C40.9067 69.1514 41.0253 69.5918 41.045 70.0251C41.06 70.3573 41.1212 70.6872 41.1759 71.133Z" fill="#F9DB70"/>
<path fill-rule="evenodd" clip-rule="evenodd" d="M30.646 46.4367C30.1633 45.9541 29.7583 45.4814 29.286 45.0896C27.9314 43.9656 27.2882 42.3754 26.4781 40.8953C26.1142 40.2307 26.2182 39.4842 26.234 38.7653C26.2368 38.6405 26.4091 38.5193 26.5099 38.3885C26.6476 38.6609 26.7767 38.9161 26.9651 39.2887V37.9577C27.2486 37.8172 27.5285 37.7407 27.7194 37.5669C27.9564 37.3513 28.2242 37.3939 28.4416 37.4486C28.6947 37.5122 28.9106 37.7235 29.1652 37.8851C29.0161 38.5837 29.291 39.1685 29.6317 39.7781C29.9367 39.6955 30.2967 39.9122 30.602 39.599C30.6667 39.5325 30.8791 39.5271 30.9706 39.5822C31.7185 40.0323 32.6362 40.2711 33.0145 41.1949C33.0824 41.3615 33.1578 41.5767 33.2944 41.6507C33.5003 41.7623 33.3155 42.1105 33.6691 42.1241C33.9601 42.1352 33.7742 42.4319 33.8264 42.5935C33.8911 42.7937 33.9794 42.9896 34.0144 43.1948C34.0466 43.3829 34.0212 43.5809 34.0212 43.7761C33.2726 44.4182 32.7914 45.2362 32.4224 46.1475C31.8236 46.2447 31.2158 46.3438 30.646 46.4367Z" fill="#F9DB70"/>
<path fill-rule="evenodd" clip-rule="evenodd" d="M6.30062 8.69688C5.88484 8.97931 5.48443 9.26246 5.06721 9.51736C5.02682 9.54203 4.88167 9.39509 4.72508 9.2857C4.62927 9.45766 4.5642 9.61532 4.46267 9.74402C4.34326 9.89596 4.18989 10.0211 4.05439 10.1609C3.77982 10.4437 3.51527 10.7586 3.1095 10.3289C3.07839 10.2964 2.98401 10.3285 2.92002 10.3218C2.46419 10.2724 2.02982 10.3861 1.57113 10.0193C1.20183 9.724 0.731704 9.51986 0.384562 9.15735C0.0592294 8.817 -0.277544 8.49739 -0.504562 8.06552C-0.852776 7.40234 -1.1967 6.74667 -1.07264 5.96837C-1.04154 5.77317 -0.907475 5.59406 -0.786279 5.33272C-0.541028 5.53364 -0.375144 5.66949 -0.181374 5.82858C-0.0226401 5.30197 -0.0551734 4.68992 0.432826 4.22587C0.624094 4.36887 0.808926 4.50687 1.03952 4.67919V3.96811C1.68018 3.85871 2.2622 3.63848 2.90429 3.67709C3.27252 3.69926 3.5907 3.81581 3.8238 4.03925C4.12339 4.32597 4.4902 4.53118 4.73473 4.8987C4.95567 5.23119 5.25777 5.50933 5.48979 5.85182C5.87054 6.4149 5.99924 7.07307 6.27774 7.67226C6.41073 7.95791 6.30062 8.35689 6.30062 8.69688Z" fill="#F9DB70"/>
<path fill-rule="evenodd" clip-rule="evenodd" d="M45.4868 27.6546C45.5125 27.4748 45.5383 27.2946 45.5669 27.0966C45.6376 27.148 45.7006 27.1684 45.717 27.2081C45.9669 27.8194 46.2783 28.4054 46.4252 29.0593C46.5175 29.4704 46.6351 29.864 46.2372 30.1844C45.9662 30.4024 46.2411 31.0288 45.6316 30.9938C45.3441 31.4553 44.8837 31.4092 44.4432 31.3777C44.3438 31.6866 44.282 31.9876 44.1522 32.2561C44.006 32.5586 43.5387 32.644 43.0378 32.501C42.9234 32.4685 42.813 32.3573 42.7082 32.3666C41.8967 32.4374 41.8981 32.4435 41.5567 31.8035C41.3861 31.4843 41.1802 31.1793 41.0479 30.845C40.8871 30.4375 40.6368 30.1829 40.2253 30.007C39.6143 29.7457 39.2175 29.2159 39.112 28.5856C39.0166 28.015 39.2836 27.4916 39.7931 27.0805C40.0455 27.4101 40.2972 27.7387 40.65 28.1991C40.65 27.7279 40.645 27.4108 40.6515 27.0941C40.6579 26.7791 40.6922 26.8434 41.1906 26.6189C41.5467 26.4584 42.0626 26.6529 42.2674 26.1588C42.6192 26.1452 42.9706 26.1324 43.3224 26.1188C43.972 26.093 44.5483 26.1638 44.8511 26.886C44.9712 27.172 45.259 27.3879 45.4868 27.6546Z" fill="#F9DB70"/>
<path fill-rule="evenodd" clip-rule="evenodd" d="M21.1354 77.2286C20.6309 77.2143 20.1536 77.0781 19.9098 77.6372C19.498 77.0945 19.4494 76.7095 19.8687 76.2783C20.1583 75.9809 20.3492 75.6094 20.7182 75.3524C21.041 75.1272 21.1597 74.6292 21.4378 74.312C21.6516 74.0682 21.9727 73.9181 22.2461 73.7268C22.3316 73.8101 22.4238 73.9009 22.5693 74.0436C22.4149 74.1533 22.2633 74.2613 22.1114 74.3689C22.1282 74.4079 22.1453 74.4468 22.1621 74.4858C22.3845 74.4508 22.6065 74.4157 22.8564 74.3764C22.9229 74.4761 23.0001 74.7321 23.1657 74.8183C24.1599 75.336 24.7945 76.2001 25.3987 77.087C25.5971 77.378 25.6654 77.7545 25.8248 78.0766C26.2184 78.8728 26.32 79.0197 26.2002 79.7433C26.1137 80.2664 26.0182 80.8241 25.6074 81.2502C25.4451 81.4183 25.2721 81.661 25.2635 81.8762C25.2421 82.4196 24.9436 82.5065 24.5045 82.4786C24.3819 82.4708 24.2521 82.4865 24.1327 82.5187C23.3669 82.7246 23.2879 82.7031 22.9061 82.1161C22.3405 81.247 22.0703 80.2531 21.7413 79.2871C21.509 78.6047 21.3316 77.9029 21.1354 77.2286Z" fill="#F9DB70"/>
<path fill-rule="evenodd" clip-rule="evenodd" d="M8.73737 66.5317C8.19575 66.2243 7.64733 65.9551 7.20581 65.51C6.38318 64.6791 5.50013 63.9008 4.74114 63.0156C3.94318 62.0851 3.09839 61.1677 2.61682 60.0766C2.66759 59.6458 3.22888 60.1034 3.2396 59.595C3.24282 59.4499 3.59854 59.3097 3.79589 59.1721C4.28567 58.8303 4.55917 58.7731 4.91596 59.1528C5.26811 59.5278 5.67531 59.6622 6.13614 59.7598C6.84794 59.9107 7.33916 60.4573 7.94835 60.7937C8.60009 61.1534 9.0645 61.7325 9.59397 62.2356C9.86818 62.4958 10.2089 62.6957 10.4445 62.9838C10.6815 63.2738 10.8992 63.6223 10.9832 63.9788C11.034 64.1958 10.871 64.5233 10.7051 64.7167C10.5003 64.9551 10.4034 65.2994 10.0448 65.4149C9.83743 65.4814 9.86675 65.7131 9.82635 65.904C9.77987 66.1231 9.71874 66.3898 9.33835 66.1145C9.07236 65.9226 8.84856 66.195 8.73737 66.5317Z" fill="#F9DB70"/>
<path fill-rule="evenodd" clip-rule="evenodd" d="M47.9897 60.8927C46.8785 60.435 46.4009 59.5842 45.9261 58.7573C45.5089 58.0304 45.1285 57.2736 44.8182 56.4953C44.509 55.7181 43.9695 54.9816 44.2101 54.0035C44.913 54.4932 44.8547 55.4296 45.5297 56.0556C45.406 55.0653 44.8922 54.3002 44.6359 53.257C44.9905 53.4515 45.1192 53.5219 45.2765 53.6081C45.3069 53.4382 45.3387 53.2602 45.3702 53.0829C45.6641 53.0271 45.954 52.972 46.2965 52.907C46.3873 53.0521 46.5064 53.2666 46.6479 53.4654C47.1999 54.2387 47.2032 54.2351 48.2056 54.5916C48.3175 54.6316 48.4223 54.6967 48.5238 54.761C49.3003 55.2515 50.0071 55.8042 50.4343 56.6569C50.5923 56.9722 50.8076 57.5514 50.7979 57.8871C50.7958 57.9657 50.8615 58.058 50.9187 58.1245C51.0646 58.2936 50.9988 58.4376 50.848 58.5231C50.41 58.7701 50.2202 59.2563 49.8312 59.5474C49.6653 59.6714 49.6356 59.8366 49.6056 60.0414C49.5641 60.3203 49.0172 60.6817 48.7626 60.6231C48.6049 60.5866 48.5031 60.297 48.2882 60.5105C48.1756 60.6227 48.0898 60.7622 47.9897 60.8927Z" fill="#F9DB70"/>
<path fill-rule="evenodd" clip-rule="evenodd" d="M16.4154 38.1711C16.2452 38.1993 16.0669 38.2286 15.8205 38.2694C15.9178 38.4517 15.9871 38.5811 16.0597 38.717C15.5967 39.18 15.1148 39.6619 14.6179 40.1592C14.5378 40.1592 14.4398 40.1445 14.3476 40.1613C13.254 40.3637 12.5257 39.743 11.9183 38.9948C11.4439 38.4102 11.036 37.7664 10.7185 37.0639C10.5205 36.6252 10.3435 36.2212 10.4851 35.6252C10.8168 36.3546 11.1125 37.0038 11.4082 37.6534C11.4607 37.6362 11.5133 37.6194 11.5662 37.6023C11.5422 37.4786 11.5386 37.3459 11.4907 37.2322C11.293 36.7625 11.0682 36.3034 10.8819 35.8297C10.7993 35.6199 10.6223 35.3585 11.0732 35.2609C11.2122 35.2309 11.2937 34.931 11.3999 34.7533C11.4929 34.5974 11.583 34.4397 11.6566 34.3139C12.1124 34.2721 12.1167 34.6707 12.401 34.8351C12.3348 34.5842 12.2687 34.3332 12.1814 34.0029C12.3273 33.8874 12.5221 33.7329 12.717 33.5781C12.84 33.7004 13.003 33.8953 13.1542 33.536C13.3183 33.1477 13.5607 32.9965 13.9536 33.2514C13.9894 33.2746 14.0634 33.2925 14.087 33.2732C14.5421 32.8982 14.8102 33.2718 15.0208 33.5585C15.5234 34.2438 15.7601 35.0668 16.0611 35.8498C16.1319 36.0335 16.286 36.465 15.7676 36.4858C15.7383 36.4868 15.7158 36.6481 15.6904 36.7346C15.7984 36.7607 15.9642 36.8443 16.0054 36.8029C16.296 36.5115 16.4526 36.8919 16.424 36.9588C16.2492 37.3695 16.6542 37.7664 16.4154 38.1711Z" fill="#F9DB70"/>
<path fill-rule="evenodd" clip-rule="evenodd" d="M12.8849 17.3657C12.9993 17.4802 13.1141 17.5949 13.2882 17.7687C13.32 17.493 13.3465 17.2656 13.3754 17.0175C13.7765 16.9335 14.1902 16.8277 14.6103 16.7655C14.8641 16.728 15.1322 16.729 15.3853 16.768C15.5784 16.798 15.4268 17.1577 15.7868 17.1891C16.0196 17.2095 16.1983 17.6049 16.3638 17.8802C16.4983 18.1036 16.297 18.5874 16.8075 18.5584C16.825 18.8748 16.8425 19.1915 16.8608 19.5079C16.8622 19.5387 16.8694 19.5691 16.874 19.5998L18.3226 21.0484C18.4778 21.0484 18.6422 21.0284 18.7992 21.0531C19.0412 21.0921 19.3018 21.332 19.1778 21.4807C18.9018 21.8114 19.3966 22.0398 19.2003 22.3097C18.4463 22.5357 18.2086 22.5607 17.5951 22.4535C17.7488 22.7856 17.8825 23.0752 18.0506 23.4391C17.9526 23.5331 17.8235 23.7623 17.6963 23.7616C16.8929 23.7555 16.0474 23.9593 15.3313 23.3891C15.1372 23.2343 14.9027 23.1131 14.7518 22.9239C14.4075 22.4928 14.0994 22.0327 13.7851 21.5779C13.6303 21.3538 13.498 21.1135 13.3493 20.8847C13.1191 20.5304 13.1874 20.0199 12.7651 19.7664C12.8291 19.3367 12.5868 19.0117 12.432 18.641C12.2214 18.1373 12.3519 17.6553 12.8849 17.3657Z" fill="#F9DB70"/>
<path fill-rule="evenodd" clip-rule="evenodd" d="M-0.495304 38.8666C-0.495304 38.7697 -0.518542 38.635 -0.487081 38.5141C-0.465988 38.4333 -0.327632 38.3783 -0.315477 38.3007C-0.302249 38.216 -0.401636 38.1187 -0.402709 38.0265C-0.403424 37.9446 -0.288306 37.8441 -0.310829 37.7837C-0.351943 37.6725 -0.44418 37.5696 -0.53892 37.4924C-0.601841 37.4409 -0.706591 37.4402 -0.83601 37.4051C-0.775233 37.6164 -0.726254 37.7866 -0.676918 37.9571C-1.0212 37.7473 -1.40373 37.5799 -1.23535 37.0741C-1.09306 37.1348 -0.953273 37.1953 -0.779881 37.2696C-0.724109 36.6608 -1.28862 36.9775 -1.50598 36.6894C-1.1878 36.7269 -0.975796 36.5078 -0.655825 36.5503C-0.507459 36.57 -0.314404 36.2547 -0.0870284 36.0394C0.228652 36.2972 0.582586 36.5857 0.996581 36.9236C1.03698 36.6765 1.06594 36.5006 1.10097 36.2865C1.56895 36.196 2.04873 36.1034 2.53387 36.0098C2.78305 36.3279 2.9779 36.6182 3.21528 36.8681C3.42121 37.0841 3.70435 37.2282 3.90277 37.4495C4.46263 38.0744 4.71646 38.8634 4.9467 39.6438C5.02928 39.9231 5.12009 40.3649 4.58633 40.4397C4.58883 40.9523 4.04828 41.0288 3.80446 41.3538C3.49879 41.7607 2.95823 41.8307 2.37478 41.5951C1.50103 41.2423 0.926867 40.5601 0.368796 39.8959C0.089581 39.563 -0.223954 39.2492 -0.495304 38.8666Z" fill="#F9DB70"/>
<path fill-rule="evenodd" clip-rule="evenodd" d="M15.5732 51.5111C15.7305 51.5647 15.8824 51.6162 16.0565 51.6755C16.0919 50.8554 15.2443 50.6255 15.1263 49.8705C15.2979 49.9463 15.4377 49.9784 15.5389 50.0589C15.7012 50.1883 15.8377 50.3492 16.0401 50.5515C15.9711 50.1404 15.9253 50.046 15.6908 49.7646C16.2035 49.1447 16.2035 49.1447 16.8087 49.1426C17.1416 49.5176 17.4258 50.0117 17.8523 50.2719C18.3231 50.5597 18.4618 51.051 18.809 51.4031C19.1408 51.7402 19.361 52.1993 19.5808 52.6301C19.7017 52.866 19.8043 53.1674 19.765 53.4155C19.7149 53.7291 19.5812 54.1899 19.3595 54.2789C18.9949 54.4258 19.0764 54.6836 18.9616 54.9053C18.8043 55.2081 18.5891 55.5027 18.1944 55.5677C17.9638 55.6056 17.6893 55.7815 17.5202 55.7054C17.1087 55.5198 16.6836 55.2835 16.3794 54.9592C15.8052 54.3472 15.2918 53.674 14.8006 52.9919C14.6773 52.821 14.7341 52.5207 14.6976 52.1828C14.8614 52.3151 14.9264 52.3673 15.0644 52.4785C14.9929 51.9812 15.4277 51.8107 15.5732 51.5111Z" fill="#F9DB70"/>
<path fill-rule="evenodd" clip-rule="evenodd" d="M10.4462 87.2692C10.1799 87.123 10.0516 87.0526 9.92714 86.9839C9.70799 87.7758 9.65365 87.8169 9.0062 87.5316C9.17709 87.9295 9.31401 88.2477 9.46309 88.5938C9.29399 88.6917 9.12096 88.7925 8.94614 88.8941C8.6301 88.5784 8.30941 88.2577 7.95905 87.907C7.74812 88.3821 8.32872 88.6016 8.27152 89.0603C7.75063 89.1329 7.44853 88.7786 7.14858 88.4526C6.98484 88.2745 6.89618 88.026 6.72743 87.8544C5.97524 87.0908 5.29954 86.2653 4.66961 85.4001C4.61313 85.3226 4.53483 85.2604 4.46476 85.1931C4.08509 84.831 3.68718 84.481 3.65894 83.8907C4.0379 83.6587 4.23917 84.0162 4.49694 84.2375C4.75899 83.8039 4.15266 83.746 4.17983 83.4263C4.20306 83.0409 4.93631 83.5325 4.75005 82.9026H5.80578C6.10787 83.1153 6.41426 83.3259 6.71456 83.5443C7.01594 83.7635 7.21508 84.0784 7.58403 84.2568C7.94225 84.4306 8.17964 84.8403 8.49496 85.1181C8.70053 85.2993 8.83102 85.5485 9.15957 85.63C9.39731 85.6887 9.52423 86.0494 9.88531 86.0029C9.98577 85.9897 10.167 86.1713 10.2182 86.3004C10.3158 86.5463 10.3458 86.8184 10.4462 87.2692Z" fill="#F9DB70"/>
<path fill-rule="evenodd" clip-rule="evenodd" d="M3.74717 22.0594C4.08252 22.0815 4.31418 21.9082 4.62093 22.1295C4.46505 22.1831 4.35208 22.222 4.22874 22.2646C4.34386 22.6553 4.47185 23.0436 4.56587 23.4397C4.58982 23.5413 4.53655 23.7418 4.46613 23.7715C4.07501 23.9367 3.95668 24.3575 3.65208 24.588C3.5173 24.6903 3.3153 24.7235 3.13905 24.7436C3.05075 24.7532 2.94671 24.6199 2.85841 24.6292C2.7508 24.6406 2.65212 24.7346 2.53879 24.799C2.37148 24.2077 2.38006 24.1837 1.72117 23.9592C1.32684 23.8248 1.24497 23.4372 0.965397 23.1934C0.902833 23.3268 0.842414 23.4555 0.774845 23.5999C0.67653 23.4969 0.511004 23.4033 0.511361 23.3103C0.516366 22.1488 0.515294 22.1227 -0.014892 21.4266C-0.313769 21.9518 0.25896 22.2557 0.290063 22.7694C0.148132 22.7472 -0.0638707 22.7637 -0.0885388 22.7033C-0.337723 22.0976 -0.717397 21.5256 -0.32807 20.7992C-0.207232 20.5736 -0.185424 20.4552 0.0859256 20.4506C0.25324 20.4481 0.433067 20.3498 0.582148 20.2554C0.968615 20.0112 1.34078 19.7452 1.7537 19.4639C1.84809 19.6047 1.93532 19.7352 1.91423 19.7034C2.23992 19.9304 2.57955 19.3191 2.63389 19.9565C2.64962 20.1374 3.05396 19.7059 3.05396 20.1796C3.05396 20.3626 3.39038 20.546 3.55948 20.7151C3.49906 20.8717 3.44186 21.0212 3.3843 21.1706C3.43221 21.2039 3.48012 21.2371 3.52838 21.2704C3.61311 21.1091 3.69784 20.9479 3.80473 20.7452C3.97884 21.0412 4.08002 21.2124 4.21265 21.4373C4.06858 21.6297 3.90805 21.8445 3.74717 22.0594Z" fill="#F9DB70"/>
<path fill-rule="evenodd" clip-rule="evenodd" d="M-3.91238 49.2888C-3.66999 49.3599 -3.41687 49.4339 -3.10584 49.5251C-2.97392 49.2108 -2.93495 48.9091 -3.21309 48.6285C-2.87131 48.3178 -2.64394 48.7861 -2.30895 48.7354C-2.27785 48.5663 -2.2446 48.3882 -2.21242 48.2138C-1.95001 47.9327 -1.71334 48.4511 -1.39623 48.2066C-1.07197 47.9563 -0.9901 48.4965 -0.71446 48.5584C-0.559659 48.5931 -0.414868 48.7543 -0.304398 48.8902C0.0616918 49.3392 0.118893 49.9745 0.611898 50.3667C0.729876 50.4603 0.666955 50.7825 0.69341 51.0688C0.146779 50.8003 0.113531 51.6676 -0.41308 51.4621C-0.575032 51.7241 -0.422018 52.1993 -1.01441 52.2561C-1.07697 52.1496 -1.17493 51.9826 -1.31436 51.7445C-1.43305 51.9923 -1.49061 52.1124 -1.5496 52.2361C-1.88137 52.3147 -2.03331 52.0287 -2.14235 51.8468C-2.50451 51.2408 -2.97356 50.7771 -3.58025 50.4146C-3.95349 50.1915 -4.15834 49.8279 -3.91238 49.2888Z" fill="#F9DB70"/>
</svg>
