<svg width="217" height="159" viewBox="0 0 217 159" fill="none" xmlns="http://www.w3.org/2000/svg">
<path d="M101.973 140.917C101.727 142.184 100.552 142.822 89.6462 145.064H37.6365C39.799 140.561 45.23 129.26 55.2773 124.331C74.9605 114.677 103.326 133.912 101.973 140.917H101.973Z" fill="#FFC107"/>
<path d="M94.6201 25.963C91.9318 28.1173 93.9303 30.0179 89.4557 36.854C85.7568 42.5051 83.1174 43.1519 81.4223 47.4583C79.3022 52.8437 80.932 58.1777 81.4223 59.7821C85.4323 72.9062 102.606 77.7275 108.105 79.271C114.101 80.9542 126.611 84.466 139.666 78.1245C149.289 73.4501 154.05 65.9273 156.306 62.3614C159.046 58.033 164.585 49.2808 161.471 44.5921C159.655 41.8585 156.321 42.6478 144.83 39.4333C143.706 39.1189 140.829 38.1729 135.075 36.2808C108.18 27.4369 99.6668 21.9192 94.6203 25.963H94.6201Z" fill="white"/>
<path d="M123.504 82.2064C116.951 82.2064 111.419 80.653 107.987 79.6897C102.323 78.0996 85.0853 73.2613 81.0055 59.9089C79.5695 55.2085 79.5732 50.9661 81.0168 47.2991C81.9705 44.8763 83.1891 43.5994 84.7318 41.9827C85.995 40.6589 87.4269 39.1584 89.0908 36.6158C91.4326 33.0382 91.9681 30.8458 92.3591 29.2451C92.7169 27.7812 92.9751 26.7234 94.3473 25.6237C98.1209 22.5999 103.381 24.5218 116.092 29.1663C121.136 31.0097 127.414 33.3037 135.211 35.8676L135.246 35.879C140.964 37.7597 143.835 38.7033 144.947 39.0144C149.315 40.2363 152.528 40.8832 154.874 41.3555C158.813 42.1486 160.611 42.5107 161.833 44.3516C165.103 49.2749 159.41 58.2703 156.674 62.5933C154.375 66.2272 149.59 73.7872 139.856 78.5156C134.131 81.2962 128.518 82.2062 123.504 82.2064H123.504ZM94.8925 26.3022C93.751 27.2168 93.5457 28.0579 93.2052 29.4515C92.7994 31.1134 92.2435 33.3895 89.8199 37.092C88.1121 39.701 86.651 41.2322 85.3621 42.5829C83.885 44.1307 82.7183 45.3534 81.827 47.6174C80.4572 51.0971 80.4609 55.1471 81.8381 59.6549C85.779 72.5525 102.671 77.2941 108.222 78.8522C114.177 80.5241 126.568 84.0027 139.474 77.7334C148.986 73.1129 153.681 65.6944 155.938 62.1292C158.576 57.9601 164.065 49.2864 161.107 44.8325C160.084 43.2922 158.509 42.9748 154.702 42.2085C152.343 41.7334 149.111 41.0827 144.712 39.852C143.581 39.5357 140.704 38.5899 134.973 36.7054L134.938 36.6939C127.128 34.1256 120.843 31.8288 115.793 29.9835C103.409 25.4581 98.2827 23.5851 94.8921 26.3024L94.8925 26.3022Z" fill="black"/>
<path d="M106.957 31.1219C106.435 31.2362 94.4159 33.6838 88.0211 25.9631C87.3537 25.1572 83.8932 20.9716 84.8652 15.932C85.9065 10.5331 91.5073 7.03961 96.0548 6.1875C101.52 5.1635 103.181 8.38616 108.392 7.04727C113.37 5.7684 113.198 2.48241 117.86 0.741997C123.663 -1.4243 129.733 1.5 137.083 5.04103C143.915 8.33241 148.371 12.1373 151.429 14.7855C155.762 18.5379 159.978 22.2552 163.479 28.5424C164.932 31.1525 167.131 35.1926 167.783 40.8662C168.183 44.3571 167.825 46.9516 167.209 51.184C166.059 59.0856 165.63 63.0567 163.766 65.514C160.256 70.1406 157.168 67.517 149.707 73.539C145.961 76.5623 144.527 79.009 140.526 79.8443C140.059 79.9417 135.36 80.8719 133.927 78.698C132.575 76.6475 134.869 72.9606 135.935 71.2462C137.453 68.8075 138.342 68.6976 141.1 64.941C143.066 62.2632 142.631 62.2952 143.682 61.2152C146.466 58.3534 148.77 58.8937 151.142 56.6296C152.008 55.8031 154.283 53.59 154.011 50.6111C153.822 48.5438 152.41 46.1793 149.994 45.4523C147.306 44.6432 144.464 46.1899 143.395 48.0318C142.585 49.4277 143.052 50.5455 141.961 51.7575C141.361 52.4239 139.972 53.4797 138.805 53.1906C135.912 52.474 138.015 44.3871 133.066 40.0068C132.509 39.5132 131.069 38.8179 128.189 37.4273C127.244 36.9713 124.185 35.518 119.868 33.988C117.775 33.2461 116.386 32.7537 114.417 32.2683C111.4 31.5248 108.813 31.2391 106.957 31.1219Z" fill="black"/>
<path d="M91.5232 63.5345C92.3221 62.7283 93.2871 62.0613 94.3618 61.6285C94.626 61.5086 94.905 61.4266 95.1811 61.3369C95.4627 61.2655 95.7431 61.1857 96.0317 61.1412C96.3173 61.0797 96.6102 61.0655 96.9007 61.0366C97.1931 61.0286 97.4857 61.0156 97.7785 61.0387C98.9475 61.1079 100.108 61.4853 101.072 62.1445C102.038 62.8017 102.806 63.713 103.304 64.7335C102.621 63.8276 101.802 63.0453 100.854 62.4884C100.734 62.4223 100.616 62.3516 100.492 62.2941C100.371 62.2304 100.248 62.1716 100.122 62.118C99.999 62.0582 99.8681 62.0176 99.7408 61.9691C99.6129 61.9214 99.4856 61.8731 99.3526 61.8412C98.833 61.676 98.2902 61.5905 97.7461 61.5592C97.4741 61.5333 97.2006 61.5423 96.927 61.5453C96.6543 61.5672 96.3805 61.5818 96.1095 61.6278C95.8361 61.6575 95.5686 61.7221 95.2986 61.7777L94.8998 61.8873C94.7652 61.9193 94.6342 61.9634 94.5036 62.0088C93.449 62.3531 92.4614 62.8943 91.5232 63.5347V63.5345Z" fill="black"/>
<path d="M86.8735 64.0812C75.5287 59.7493 72.335 60.3843 62.199 55.1964C58.8229 53.4685 57.8229 52.7048 49.001 48.0314C45.0801 45.9543 41.6053 44.2583 34.6554 40.8664C25.8614 36.5743 24.2781 35.9583 21.7444 35.9941C20.2945 36.0146 13.2848 36.1141 10.5548 41.4396C9.01435 44.4446 10.1797 47.5498 12.5265 53.6138C15.4844 61.2569 19.616 66.9498 24.0397 72.9658C25.9974 75.6282 26.976 76.9598 27.7695 77.838C39.402 90.7095 55.494 87.0806 59.0429 96.1806C60.393 99.6423 59.3783 103.537 58.756 105.925C57.7163 109.916 56.2429 110.671 53.0178 117.389C50.8095 121.99 49.7051 124.29 49.288 127.42C49.1163 128.709 48.3846 134.197 51.0094 139.171C52.867 142.691 56.1738 145.514 65.355 148.915C76.4314 153.019 85.7068 154.129 90.3163 154.647C116.997 157.645 113.449 154.451 123.885 157.227C125.321 157.609 128.316 158.468 130.484 156.94C132.895 155.241 131.505 151.706 132.492 144.903C133.732 136.358 137.154 134.59 136.796 127.42C136.603 123.551 134.752 120.863 135.361 120.542C136.008 120.201 137.666 123.306 141.673 127.42C144.414 130.234 145.147 130.33 151.715 136.018C155.078 138.93 155.649 139.566 156.88 140.604C163.084 145.838 172.481 147.699 191.022 151.208C193.59 151.694 195.89 152.097 198.195 150.922C202.398 148.779 206.01 142.796 203.933 137.738C202.769 134.902 200.16 133.453 199.056 132.866C178.686 122.026 172.252 118.802 166.348 114.81C164.657 113.667 159.77 109.462 149.994 101.053C139.896 92.3664 139.606 91.7581 136.222 89.3023C129.766 84.6174 126.894 83.9825 112.982 77.265C93.2805 67.7518 96.0902 67.6006 86.8731 64.0812H86.8735Z" fill="#FEC436" fill-opacity="0.8"/>
<path d="M127.401 158.246C126.015 158.246 124.711 157.898 123.894 157.679L123.773 157.647C118.84 156.335 117.115 156.372 113.678 156.445C109.909 156.525 104.214 156.646 90.2676 155.079C86.1764 154.62 76.5956 153.543 65.2036 149.323C55.5798 145.758 52.4152 142.767 50.6243 139.374C49.3973 137.049 48.0946 133.078 48.8562 127.363C49.2827 124.164 50.3998 121.837 52.6252 117.201C54.0302 114.274 55.0974 112.485 55.955 111.046C57.0424 109.223 57.7608 108.018 58.3347 105.815C58.9336 103.517 59.9363 99.6692 58.6372 96.3384C57.0043 92.1512 52.5707 90.7784 46.9577 89.0402C40.9871 87.1912 33.5566 84.8903 27.4464 78.1292C26.6417 77.2394 25.6644 75.9099 23.7169 73.2615L23.6887 73.2232C19.4955 67.5206 15.1596 61.624 12.1201 53.7707C9.79682 47.7673 8.51709 44.4602 10.1673 41.2412C12.0046 37.6567 16.1139 35.639 21.7381 35.5591C24.3324 35.5226 25.9218 36.1198 34.8466 40.4756C41.7905 43.8646 45.2758 45.5657 49.2051 47.6471C54.1519 50.2678 56.6471 51.6634 58.4692 52.6823C59.892 53.4781 60.9201 54.0532 62.3977 54.8095C68.3754 57.8688 71.9943 58.9109 76.1847 60.1177C79.0979 60.9564 82.3996 61.9072 87.0291 63.6749C91.6646 65.4449 93.277 66.3678 96.2041 68.0428C99.0397 69.6658 103.325 72.1187 113.172 76.8733C117.202 78.819 120.326 80.2642 122.837 81.4255C129.032 84.2908 131.86 85.5984 136.479 88.9503C138.533 90.4407 139.425 91.229 142.073 93.5684C143.841 95.1298 146.262 97.268 150.278 100.723L150.293 100.736C160.035 109.116 164.924 113.321 166.592 114.45C171.422 117.715 176.741 120.535 189.594 127.35C192.422 128.849 195.619 130.543 199.261 132.482C200.206 132.985 203.081 134.515 204.337 137.573C206.479 142.79 202.924 148.999 198.394 151.309C195.909 152.576 193.384 152.098 190.942 151.636C172.936 148.228 163.018 146.351 156.599 140.936C156.071 140.491 155.669 140.124 155.113 139.617C154.375 138.943 153.363 138.02 151.431 136.347C148.493 133.803 146.718 132.374 145.421 131.33C143.791 130.018 142.892 129.295 141.362 127.724C139.46 125.771 138.093 124.056 137.095 122.805C136.598 122.182 136.09 121.544 135.75 121.2C135.824 121.459 135.941 121.794 136.05 122.105C136.476 123.327 137.12 125.175 137.231 127.399C137.432 131.421 136.475 133.776 135.367 136.503C134.481 138.682 133.477 141.152 132.924 144.965C132.555 147.507 132.521 149.608 132.494 151.297C132.447 154.196 132.417 156.111 130.735 157.296C129.714 158.015 128.53 158.246 127.402 158.246L127.401 158.246ZM115.637 155.546C117.99 155.546 120 155.743 123.997 156.806L124.119 156.839C125.577 157.228 128.291 157.953 130.233 156.585C131.553 155.655 131.579 154.009 131.623 151.283C131.65 149.569 131.685 147.437 132.062 144.841C132.63 140.922 133.655 138.401 134.56 136.176C135.629 133.545 136.553 131.272 136.361 127.442C136.256 125.343 135.637 123.567 135.227 122.391C134.824 121.236 134.558 120.473 135.158 120.157C135.818 119.809 136.392 120.527 137.776 122.263C138.762 123.5 140.113 125.195 141.986 127.117C143.479 128.65 144.363 129.362 145.967 130.653C147.269 131.7 149.051 133.135 152.001 135.69C153.941 137.37 154.958 138.297 155.7 138.974C156.249 139.475 156.645 139.837 157.161 140.271C163.152 145.325 171.896 147.146 191.104 150.781C193.508 151.236 195.778 151.665 197.998 150.534C202.182 148.401 205.438 142.546 203.531 137.903C202.394 135.135 199.728 133.716 198.851 133.249C195.21 131.311 192.013 129.617 189.186 128.118C176.304 121.288 170.972 118.461 166.104 115.17C164.394 114.013 159.492 109.796 149.725 101.395L149.71 101.382C145.689 97.9232 143.266 95.7827 141.496 94.2199C138.871 91.901 137.987 91.1199 135.966 89.6538C131.416 86.352 128.613 85.0554 122.471 82.2146C119.957 81.0519 116.829 79.6052 112.793 77.6564C102.918 72.8883 98.6172 70.4264 95.7711 68.7975C92.8818 67.1439 91.2903 66.2332 86.7183 64.4872C82.123 62.7327 78.8401 61.7872 75.9437 60.9533C71.7097 59.7341 68.0532 58.6812 62.0008 55.5835C60.5091 54.8201 59.4751 54.2418 58.044 53.4415C56.2258 52.4245 53.7355 51.0317 48.7973 48.4157C44.881 46.3409 41.3999 44.642 34.4647 41.2572C25.7042 36.9817 24.1594 36.3994 21.751 36.4292C16.4645 36.5041 12.6262 38.3538 10.9428 41.6379C9.53 44.394 10.5319 47.2528 12.9329 53.4572C15.9304 61.2026 20.2314 67.0517 24.3909 72.7082L24.4191 72.7467C26.3493 75.3716 27.3182 76.6891 28.093 77.5468C34.0432 84.1306 41.0413 86.2976 47.2158 88.2095C52.8218 89.9456 57.6635 91.4449 59.449 96.0229C60.8501 99.6158 59.8032 103.634 59.1776 106.035C58.5726 108.357 57.8289 109.604 56.7032 111.492C55.8547 112.915 54.7986 114.686 53.4107 117.577C51.225 122.13 50.1279 124.416 49.7197 127.478C48.9884 132.966 50.227 136.755 51.3948 138.968C53.0925 142.185 56.142 145.038 65.5066 148.508C76.7988 152.691 86.3055 153.759 90.3652 154.215C104.254 155.776 109.914 155.655 113.659 155.575C114.371 155.56 115.016 155.546 115.637 155.546L115.637 155.546Z" fill="white"/>
<path d="M52.5735 90.5676C53.5748 90.6644 54.5527 90.8275 55.5261 91.0041C56.4984 91.1838 57.4636 91.3836 58.425 91.5916L61.3014 92.2261C61.7803 92.3301 62.2593 92.4314 62.7407 92.521C63.2234 92.6116 63.7027 92.6873 64.2055 92.6901C63.7335 92.8794 63.2133 92.9203 62.7107 92.947C62.2046 92.9657 61.7008 92.9429 61.2004 92.9027C60.2 92.8173 59.2136 92.6525 58.2402 92.4415C57.2668 92.2298 56.3058 91.97 55.3585 91.665C54.4125 91.3562 53.4769 91.0109 52.5734 90.5676H52.5735Z" fill="white"/>
<path d="M0.654817 27.1319C7.28683 20.8997 11.2375 20.4292 13.6261 21.1716C16.5687 22.086 18.6652 25.3144 20.1116 24.5404C21.3905 23.8561 20.3401 21.018 22.1871 19.6166C23.1647 18.8748 24.7492 18.6911 25.5597 19.3574C26.5935 20.2074 26.0129 22.149 25.5597 25.3177C24.7563 30.9361 25.6661 31.4994 25.0409 33.6102C23.5017 38.8064 15.2931 45.0322 7.91886 41.9028C2.74613 39.7078 -0.45807 33.5709 0.654987 27.1315L0.654817 27.1319Z" fill="white"/>
<path d="M12.0871 43.173C10.5821 43.173 9.11677 42.8842 7.74857 42.3035C2.26497 39.9766 -0.898842 33.5651 0.225884 27.058L0.25063 26.915L0.356504 26.8153C5.78089 21.7176 10.2892 19.6788 13.7553 20.7565C15.181 21.1995 16.3751 22.1234 17.4285 22.9387C18.4716 23.7459 19.3723 24.4428 19.906 24.1572C20.2937 23.95 20.3769 23.2943 20.473 22.5352C20.6084 21.4683 20.777 20.1405 21.9236 19.2705C22.9822 18.4674 24.807 18.1757 25.8361 19.0221C26.8717 19.8735 26.6216 21.4171 26.2428 23.7539C26.1597 24.2668 26.0737 24.7972 25.9904 25.3797C25.5556 28.4205 25.6291 29.9517 25.6825 31.0698C25.7282 32.0225 25.7612 32.7107 25.458 33.734C24.535 36.8498 21.4396 40.1094 17.7556 41.8449C15.8798 42.7285 13.953 43.173 12.0867 43.173H12.0871ZM1.06012 27.3489C0.0736744 33.4125 3.01332 39.3491 8.08904 41.5029C11.7205 43.0439 15.1483 42.1118 17.3845 41.058C20.8574 39.4218 23.7666 36.3792 24.6233 33.4871C24.8847 32.6049 24.8561 32.0106 24.8131 31.1112C24.7579 29.9583 24.6821 28.3793 25.1287 25.2565C25.2132 24.666 25.3037 24.1076 25.3835 23.6146C25.714 21.5747 25.9324 20.2273 25.283 19.6934C24.6609 19.1816 23.3106 19.3103 22.4506 19.9631C21.5952 20.612 21.464 21.6452 21.3372 22.6443C21.2158 23.6008 21.1012 24.5042 20.3173 24.9239C19.2861 25.4752 18.1781 24.6187 16.8954 23.6262C15.9003 22.856 14.7723 21.9832 13.4967 21.5867C10.374 20.6165 6.19001 22.5549 1.05995 27.3487L1.06012 27.3489Z" fill="#FBBC05"/>
<path d="M201.5 132.591C201.904 132.257 206.373 128.609 207.979 129.809C208.885 130.486 208.92 132.728 207.979 133.696C207.499 134.192 206.811 134.266 206.827 134.33C206.848 134.417 208.827 133.445 210.804 133.639C212.592 133.815 214.484 134.952 215.474 136.633C217.476 140.032 214.884 144.108 214.436 144.811C212.049 148.564 207.956 149.366 207.345 149.476C202.775 150.295 196.657 148.234 195.354 143.774C193.92 138.866 199.301 134.411 201.5 132.591Z" fill="white"/>
<path d="M205.31 150.086C200.916 150.086 196.095 147.863 194.936 143.896C193.422 138.713 198.888 134.188 201.223 132.256C202.42 131.265 206.466 128.135 208.24 129.461C208.716 129.817 209.028 130.5 209.094 131.334C209.142 131.932 209.061 132.693 208.748 133.338C209.386 133.212 210.115 133.135 210.847 133.206C212.854 133.404 214.818 134.663 215.849 136.413C217.779 139.688 215.761 143.54 214.804 145.045C212.448 148.748 208.558 149.7 207.422 149.904C206.742 150.026 206.032 150.086 205.31 150.086L205.31 150.086ZM201.778 132.926C199.576 134.749 194.418 139.018 195.772 143.653C196.992 147.828 202.809 149.848 207.269 149.047C208.014 148.914 211.847 148.07 214.069 144.578C214.94 143.209 216.784 139.715 215.099 136.854C214.217 135.358 212.475 134.24 210.762 134.072C209.37 133.935 207.929 134.432 207.315 134.645C206.948 134.772 206.812 134.819 206.622 134.716L206.453 134.624L206.404 134.434C206.303 134.023 206.717 133.887 206.853 133.842C207.062 133.773 207.411 133.658 207.667 133.394C208.07 132.979 208.289 132.198 208.226 131.403C208.181 130.835 207.986 130.358 207.719 130.158C206.717 129.409 203.618 131.404 201.778 132.926L201.778 132.926Z" fill="#FBBC05"/>
</svg>
