<svg width="200" height="212" viewBox="0 0 200 212" fill="none" xmlns="http://www.w3.org/2000/svg">
<path d="M89.176 6.45736L4.11509 139.935C1.84239 143.501 2.8942 148.233 6.46438 150.503L99.8389 209.879C103.409 212.149 108.146 211.099 110.418 207.532L195.479 74.0548C197.752 70.4885 196.7 65.757 193.13 63.4867L99.7555 4.11061C96.1853 1.84036 91.4487 2.89104 89.176 6.45736Z" fill="white"/>
<path d="M103.94 211.942C102.373 211.942 100.788 211.512 99.3712 210.611L5.99645 151.235C2.02682 148.711 0.853331 143.432 3.38022 139.467L88.4407 5.98878C89.6602 4.07491 91.5606 2.74836 93.7918 2.25341C96.0231 1.75899 98.3067 2.15686 100.222 3.37519L193.597 62.751C195.513 63.9691 196.841 65.8673 197.336 68.0963C197.832 70.325 197.433 72.6063 196.214 74.52L111.153 207.998C109.528 210.547 106.763 211.942 103.94 211.942L103.94 211.942ZM100.306 209.144C103.466 211.152 107.672 210.22 109.684 207.063L194.744 73.5854C195.714 72.0639 196.03 70.2483 195.636 68.4732C195.241 66.6982 194.185 65.1871 192.662 64.2184L99.287 4.84265C97.7636 3.87397 95.9459 3.55735 94.1692 3.95174C92.392 4.34596 90.8794 5.40109 89.9097 6.92265L4.84925 140.401C3.8797 141.922 3.56273 143.738 3.95738 145.513C4.35203 147.288 5.40831 148.799 6.93152 149.768L100.306 209.144Z" fill="#FBBC05"/>
<path d="M40.6699 116.294L23.9858 142.474C23.366 143.447 23.6529 144.738 24.6265 145.357L39.7911 155C40.7648 155.619 42.0566 155.332 42.6764 154.36L59.3605 128.179C59.9803 127.206 59.6935 125.916 58.7198 125.297L43.5552 115.654C42.5815 115.035 41.2897 115.321 40.6699 116.294Z" fill="white"/>
<path d="M40.9083 156.193C40.3645 156.193 39.8151 156.044 39.3232 155.732L24.1588 146.089C22.7815 145.213 22.3743 143.381 23.251 142.006L39.9351 115.825C40.3584 115.161 41.0176 114.7 41.7912 114.529C42.5643 114.357 43.3571 114.495 44.0224 114.918L59.1869 124.561C59.8522 124.984 60.3132 125.643 60.4849 126.416C60.6568 127.188 60.5182 127.98 60.0948 128.644L43.4108 154.825C42.847 155.709 41.8876 156.193 40.9083 156.193ZM40.2585 154.264C40.8255 154.624 41.5809 154.457 41.9417 153.891L58.6257 127.71C58.7994 127.438 58.8558 127.112 58.7849 126.793C58.714 126.474 58.5247 126.202 58.2518 126.029L43.0874 116.386C42.8143 116.212 42.4882 116.156 42.169 116.227C41.8494 116.298 41.5779 116.487 41.4043 116.759L24.7203 142.94C24.5466 143.212 24.4902 143.538 24.5611 143.857C24.632 144.176 24.8213 144.448 25.094 144.621L40.2585 154.264V154.264Z" fill="#FBBC05"/>
<path d="M59.0006 168.765L57.6274 170.961L58.9689 172.105C59.0342 171.962 59.0941 171.827 59.227 171.614C59.5036 171.172 59.878 170.79 60.3124 170.569C60.8516 170.277 61.5801 170.216 62.307 170.669C63.4323 171.372 63.715 172.791 62.934 174.039C62.5411 174.668 62.0315 175.088 61.6825 175.252L61.2107 174.687C61.5022 174.536 61.9726 174.178 62.2995 173.655C62.7592 172.921 62.6736 171.993 61.9026 171.512C61.1529 171.056 60.311 171.22 59.5914 172.371C59.3866 172.699 59.2613 172.977 59.1549 173.207L56.6228 171.109L58.3451 168.356L59.0006 168.766V168.765Z" fill="#F9DB70"/>
<path d="M61.9289 164.242L61.9178 164.26L61.8328 165.597L61.145 165.377L61.2579 163.7L61.6729 163.036L67.4327 166.631L66.9623 167.383L61.9291 164.242L61.9289 164.242Z" fill="#F9DB70"/>
<path d="M66.8968 156.142L65.5236 158.338L66.8648 159.482C66.9305 159.339 66.99 159.204 67.1229 158.991C67.3998 158.549 67.7742 158.167 68.2083 157.945C68.7475 157.654 69.4763 157.593 70.2033 158.046C71.3285 158.748 71.6112 160.168 70.8303 161.416C70.437 162.045 69.9278 162.465 69.5787 162.629L69.1069 162.063C69.3981 161.913 69.8689 161.555 70.1954 161.032C70.6554 160.297 70.5695 159.37 69.7989 158.889C69.0491 158.433 68.2072 158.597 67.4876 159.748C67.2824 160.076 67.1574 160.354 67.0511 160.583L64.519 158.486L66.2413 155.733L66.8968 156.142V156.142Z" fill="#F9DB70"/>
<path d="M73.8008 156.451L73.3222 156.152L73.1109 155.171C72.6299 152.828 72.3007 151.699 71.4377 151.148C70.8531 150.783 70.1352 150.729 69.5983 151.587C69.2717 152.11 69.266 152.71 69.3217 153.113L68.6169 153.018C68.5294 152.41 68.6359 151.688 69.0509 151.024C69.8261 149.785 71.0034 149.794 71.8275 150.308C72.8908 150.972 73.2687 152.279 73.6797 154.222L73.8175 154.947L73.8353 154.958L75.452 152.374L76.099 152.777L73.8009 156.451L73.8008 156.451Z" fill="#F9DB70"/>
<path d="M79.3303 137.016C79.2218 137.17 79.1033 137.379 79.0002 137.623C78.44 138.971 78.9306 140.176 79.7958 140.901L79.8122 140.874C79.6206 140.373 79.6187 139.707 80.0173 139.07C80.6541 138.052 81.8378 137.794 82.9634 138.497C84.018 139.155 84.5441 140.48 83.7964 141.675C83.0266 142.905 81.566 143.114 80.0684 142.179C78.9342 141.471 78.2938 140.505 78.0812 139.585C77.9105 138.813 78.0166 137.994 78.3823 137.212C78.4908 136.96 78.6037 136.76 78.6921 136.618L79.3303 137.016ZM82.5151 139.312C81.691 138.797 80.901 138.957 80.4524 139.674C80.1591 140.143 80.18 140.759 80.4639 141.232C80.5189 141.34 80.6123 141.447 80.754 141.536C81.7133 142.11 82.6844 142.113 83.194 141.299C83.6148 140.626 83.3389 139.826 82.5151 139.312Z" fill="#F9DB70"/>
<path d="M84.9283 136.399C84.2017 135.946 83.9589 135.191 84.1006 134.295L84.0683 134.287C83.3681 134.737 82.7004 134.701 82.2046 134.392C81.2916 133.822 81.1532 132.665 81.7845 131.655C82.4822 130.54 83.5308 130.419 84.2485 130.867C84.736 131.172 85.1094 131.737 85.003 132.655L85.0298 132.672C85.7618 132.132 86.5438 132.004 87.2439 132.442C88.2453 133.067 88.3813 134.346 87.6946 135.443C86.9419 136.647 85.77 136.925 84.9281 136.399H84.9283ZM82.6107 133.624C83.1866 133.983 83.7682 133.743 84.3608 133.19C84.5023 132.589 84.3861 131.987 83.8633 131.661C83.4026 131.373 82.7523 131.349 82.3148 132.048C81.9108 132.694 82.1145 133.314 82.6107 133.624V133.624ZM86.8306 133.279C86.1305 132.842 85.4894 133.119 84.7806 133.76C84.5547 134.554 84.7707 135.194 85.3201 135.536C85.8886 135.928 86.6794 135.806 87.1389 135.072C87.5764 134.372 87.4243 133.65 86.8306 133.279Z" fill="#F9DB70"/>
<path d="M86.9597 123.599L87.4736 123.92L91.1524 129.7L90.6486 130.505L87.1147 124.828L87.0969 124.817L85.3364 127.632L84.6893 127.228L86.9595 123.599L86.9597 123.599Z" fill="#F9DB70"/>
<path d="M93.5522 123.874C93.8324 123.741 94.3751 123.366 94.7128 122.826C95.3388 121.826 94.8941 121.118 94.4105 120.828C93.5985 120.333 92.7988 120.843 92.328 121.596L92.0569 122.03L91.4719 121.664L91.7434 121.231C92.0978 120.664 92.2537 119.765 91.5717 119.339C91.1109 119.051 90.5203 119.089 90.072 119.806C89.7839 120.266 89.7108 120.836 89.7332 121.194L89.0387 121.044C89.0054 120.605 89.1496 119.882 89.537 119.263C90.2458 118.13 91.2401 118.037 91.9406 118.474C92.5341 118.844 92.8178 119.514 92.6318 120.382L92.6496 120.393C93.2342 119.773 94.1259 119.53 94.9323 120.033C95.8538 120.609 96.2116 121.829 95.348 123.21C94.9439 123.856 94.3857 124.295 94.0224 124.462L93.5528 123.874L93.5522 123.874Z" fill="#F9DB70"/>
<path d="M110.256 99.8564C110.379 99.6995 110.483 99.4935 110.622 99.2115C110.843 98.7212 110.922 98.1802 110.817 97.6591C110.709 97.0626 110.376 96.4732 109.76 95.941L109.744 95.9674C109.934 96.5294 109.877 97.1336 109.517 97.7089C108.869 98.7445 107.673 98.9217 106.69 98.3077C105.6 97.6273 105.136 96.2423 105.872 95.0649C106.609 93.8874 108.02 93.759 109.491 94.6771C110.758 95.4681 111.378 96.4462 111.573 97.3556C111.731 98.0692 111.615 98.8458 111.298 99.5097C111.165 99.8208 111.019 100.074 110.894 100.254L110.256 99.8561V99.8564ZM107.119 97.5043C107.836 97.9525 108.613 97.8342 109.034 97.1614C109.36 96.6391 109.358 96.0713 109.14 95.652C109.097 95.5635 109.025 95.4817 108.901 95.4043C107.917 94.7903 106.937 94.683 106.427 95.4974C106.012 96.1613 106.303 96.9954 107.119 97.5041V97.5043Z" fill="#F9DB70"/>
<path d="M113.692 93.5949C113.972 93.462 114.515 93.0871 114.853 92.5471C115.479 91.547 115.034 90.8389 114.55 90.5492C113.738 90.0546 112.939 90.5647 112.468 91.3171L112.197 91.7507L111.612 91.3857L111.883 90.9521C112.238 90.3855 112.394 89.4859 111.711 89.06C111.251 88.7724 110.66 88.81 110.212 89.5271C109.924 89.9875 109.851 90.5574 109.873 90.9158L109.179 90.7653C109.146 90.3262 109.289 89.6035 109.677 88.984C110.386 87.8509 111.38 87.7578 112.08 88.1948C112.674 88.5656 112.958 89.235 112.772 90.1035L112.79 90.1143C113.374 89.4946 114.266 89.2512 115.072 89.7547C115.994 90.33 116.352 91.5502 115.488 92.9312C115.084 93.5775 114.526 94.0167 114.162 94.1837L113.693 93.5951L113.692 93.5949Z" fill="#F9DB70"/>
<path d="M118.419 88.0279L117.94 87.7292L117.729 86.7476C117.248 84.4044 116.919 83.2758 116.056 82.7249C115.471 82.3599 114.753 82.3058 114.216 83.1641C113.89 83.6866 113.884 84.2863 113.94 84.69L113.235 84.5949C113.147 83.9863 113.254 83.2649 113.669 82.601C114.444 81.3618 115.622 81.3707 116.446 81.8849C117.509 82.5486 117.887 83.8553 118.298 85.7981L118.435 86.5239L118.453 86.535L120.07 83.9503L120.717 84.3539L118.419 88.0275L118.419 88.0279Z" fill="#F9DB70"/>
<path d="M121.817 76.0561C123.775 77.2784 124.403 78.6793 123.605 79.9538C122.902 81.0782 121.372 81.1812 119.455 80.0096C117.523 78.8037 116.981 77.3078 117.711 76.1394C118.47 74.9267 119.983 74.9109 121.817 76.0561ZM119.951 79.2361C121.449 80.1709 122.588 80.2415 123.03 79.5335C123.529 78.7368 122.836 77.7755 121.365 76.8573C119.948 75.9721 118.79 75.7543 118.286 76.5599C117.86 77.2416 118.383 78.2572 119.951 79.2361Z" fill="#F9DB70"/>
<path d="M132.384 66.4107L130.816 65.4316L129.144 68.1049L128.63 67.7841L126.558 62.9214L127.084 62.0806L130.664 64.3152L131.168 63.5096L131.779 63.8913L131.275 64.6968L132.844 65.6759L132.384 66.4107H132.384ZM130.204 65.0499L128.281 63.8499C127.98 63.6618 127.684 63.4649 127.394 63.2591L127.378 63.2857C127.603 63.6729 127.763 63.9696 127.929 64.2947L129.007 66.9243L129.025 66.9354L130.204 65.0499H130.204Z" fill="#F9DB70"/>
<path d="M134.048 61.7623C134.328 61.6294 134.871 61.2543 135.208 60.7145C135.834 59.7141 135.39 59.0061 134.906 58.7162C134.094 58.2218 133.294 58.7319 132.824 59.4843L132.552 59.918L131.968 59.5528L132.239 59.1192C132.593 58.5527 132.749 57.6529 132.067 57.2272C131.606 56.9396 131.016 56.9772 130.568 57.6943C130.28 58.1546 130.207 58.7244 130.229 59.0828L129.534 58.9325C129.501 58.4934 129.645 57.7707 130.033 57.1512C130.741 56.0181 131.736 55.925 132.436 56.3622C133.03 56.7326 133.313 57.402 133.127 58.2705L133.145 58.2816C133.73 57.6619 134.622 57.4186 135.428 57.9219C136.349 58.4972 136.707 59.7174 135.844 61.0984C135.439 61.7446 134.881 62.1838 134.518 62.351L134.048 61.7625L134.048 61.7623Z" fill="#F9DB70"/>
<path d="M138.774 56.1953L138.296 55.8965L138.084 54.915C137.603 52.5716 137.274 51.4432 136.411 50.8924C135.827 50.5272 135.109 50.4731 134.572 51.3317C134.245 51.854 134.24 52.4536 134.295 52.8576L133.591 52.7626C133.503 52.1539 133.609 51.4324 134.025 50.7687C134.8 49.5293 135.977 49.538 136.801 50.0525C137.865 50.7162 138.242 52.0229 138.654 53.9658L138.791 54.6916L138.809 54.7026L140.426 52.1179L141.072 52.5217L138.775 56.1951L138.774 56.1953Z" fill="#F9DB70"/>
<path d="M142.723 49.8837L142.244 49.585L142.032 48.6036C141.552 46.26 141.222 45.1316 140.36 44.5808C139.775 44.2157 139.057 44.1616 138.52 45.0201C138.193 45.5424 138.188 46.1421 138.243 46.546L137.539 46.451C137.451 45.8425 137.558 45.121 137.973 44.4571C138.748 43.2179 139.925 43.2265 140.749 43.7409C141.813 44.4046 142.19 45.7113 142.602 47.6542L142.739 48.38L142.757 48.391L144.374 45.8063L145.021 46.2101L142.723 49.8835L142.723 49.8837Z" fill="#F9DB70"/>
</svg>
