<svg width="114" height="114" viewBox="0 0 114 114" fill="none" xmlns="http://www.w3.org/2000/svg">
<path d="M56.8195 112.733C87.7673 112.733 112.855 87.6724 112.855 56.758C112.855 25.8437 87.7673 0.782715 56.8195 0.782715C25.8718 0.782715 0.783691 25.8437 0.783691 56.758C0.783691 87.6724 25.8718 112.733 56.8195 112.733Z" fill="white"/>
<path d="M56.8195 113.516C41.6424 113.516 27.3738 107.612 16.642 96.8921C5.9103 86.1718 0 71.9186 0 56.758C0 41.5974 5.9103 27.3442 16.642 16.6241C27.3738 5.90391 41.6424 0 56.8195 0C71.9967 0 86.2651 5.90391 96.9969 16.6241C107.729 27.3442 113.639 41.5974 113.639 56.758C113.639 71.9186 107.729 86.1718 96.9969 96.8921C86.2651 107.612 71.9965 113.516 56.8195 113.516ZM56.8195 1.56558C26.3534 1.56558 1.56744 26.3247 1.56744 56.758C1.56744 87.1913 26.3534 111.95 56.8195 111.95C87.2857 111.95 112.072 87.1913 112.072 56.758C112.072 26.3247 87.2857 1.56558 56.8195 1.56558Z" fill="#FFDE59" fill-opacity="0.6"/>
<path d="M48.5976 82.5059C47.4748 82.5059 46.4219 82.0716 45.6328 81.2832C45.4494 81.1012 45.282 80.8996 45.1348 80.6832C44.9648 80.5442 44.8055 80.3918 44.6595 80.2289L24.7048 57.884C23.9617 57.0522 23.5874 55.9776 23.6513 54.8581C23.715 53.7384 24.2091 52.713 25.0425 51.9707C25.8076 51.2876 26.7977 50.9113 27.8298 50.9113C29.028 50.9113 30.1698 51.4204 30.9622 52.3078L48.7589 72.2372L88.8074 32.233C89.5967 31.4446 90.6495 31.0105 91.7718 31.0105C92.8941 31.0105 93.9468 31.4447 94.7361 32.233C95.5256 33.0204 95.9608 34.0724 95.9608 35.1947C95.9608 36.317 95.5258 37.3666 94.7361 38.1554L51.5627 81.2832C50.7734 82.0716 49.7204 82.5059 48.5978 82.5059H48.5976ZM27.8298 52.6511C27.2263 52.6511 26.6482 52.8704 26.2022 53.2685C25.7156 53.7019 25.4274 54.3013 25.3899 54.9569C25.3525 55.6124 25.5707 56.2404 26.0042 56.7256L45.9584 79.0703C46.0645 79.1887 46.1834 79.2985 46.3116 79.3952L46.4393 79.492L46.5241 79.6277C46.6204 79.782 46.7341 79.9245 46.862 80.0513C47.3242 80.513 47.9398 80.7663 48.5973 80.7663C49.2548 80.7663 49.8704 80.513 50.3307 80.0532L93.5043 36.9252C93.9651 36.4649 94.2189 35.8504 94.2189 35.1947C94.2189 34.539 93.9653 33.9228 93.5048 33.4637C93.044 33.0034 92.4287 32.75 91.7714 32.75C91.1141 32.75 90.4986 33.0034 90.0385 33.463L48.6863 74.7695L29.6621 53.4658C29.1999 52.9479 28.5318 52.6509 27.8296 52.6509L27.8298 52.6511Z" fill="#FEC436" fill-opacity="0.6"/>
</svg>
