<svg width="50" height="82" viewBox="0 0 50 82" fill="none" xmlns="http://www.w3.org/2000/svg">
<path fill-rule="evenodd" clip-rule="evenodd" d="M28.2514 62.7562C27.9373 62.8534 27.6792 62.9336 27.3456 63.0369C27.4269 62.8626 27.4805 62.7476 27.5483 62.6018C27.3261 62.2671 27.0748 61.9675 26.6152 62.0339C26.5797 61.8983 26.557 61.811 26.525 61.6896H25.7254C25.6455 61.6097 25.5763 61.5718 25.5582 61.5171C25.4357 61.148 25.4098 60.7093 25.1877 60.4197C24.9016 60.0474 25.0439 59.6821 25.0308 59.3215C25.0198 59.0287 25.138 58.7288 25.21 58.4349C25.4684 57.3843 25.8681 56.3852 26.377 55.4351C26.6904 54.8509 27.0414 54.2819 27.4262 53.7421C27.8021 53.2146 28.2425 52.733 28.6674 52.2152C28.552 52.1413 28.4257 52.0554 28.2943 51.9777C27.0248 51.2267 25.9128 50.2812 24.8817 49.2327C24.3951 48.7379 24.3923 48.0739 24.2503 47.4627C24.1931 47.2181 24.2411 46.9487 24.2411 46.6907C24.5012 46.1945 25.0255 46.1526 25.5341 45.9503C25.7055 46.252 25.8815 46.5622 26.0803 46.9111C26.1151 46.8856 26.1754 46.8412 26.2837 46.7613C26.35 46.8274 26.4668 46.8909 26.4995 46.9842C26.7018 47.5596 27.1717 47.8524 27.6711 48.1016C28.6872 48.6095 29.7126 49.0975 30.8037 49.6274C31.0589 49.3576 31.3141 48.9438 31.6846 48.7369C32.026 48.5459 32.0438 47.9997 32.5762 48.0522C32.5002 47.9589 32.4473 47.8939 32.3685 47.7974C32.5318 47.6831 32.6972 47.5674 32.9276 47.4063C33.0003 47.2458 33.1114 47.0013 33.22 46.7617C33.3847 46.7521 33.5377 46.7432 33.7581 46.7305C33.6644 46.6098 33.6154 46.547 33.5395 46.449C33.9505 46.389 33.9778 45.9635 34.2365 45.7349C34.5098 45.4932 34.7033 45.1613 34.9624 44.8291C35.0199 44.8714 35.0798 44.9154 35.1941 44.9995C35.2445 44.8809 35.2917 44.7691 35.351 44.6289C35.4209 44.6854 35.4855 44.7372 35.6019 44.8316C35.7286 44.1519 36.1141 43.6068 36.5237 43.1166C36.9457 42.6112 37.3251 42.0309 38.0158 41.6926C38.1024 41.764 38.2185 41.8594 38.3498 41.9673C38.0768 42.4916 37.8124 43.0112 37.2531 43.2848V44.0589C37.3855 44.0266 37.52 44.0327 37.548 43.9808C37.6602 43.7718 37.7393 43.545 37.7837 43.4382C38.2437 43.0591 38.6195 42.7496 39.0937 42.3592C39.1207 42.7209 39.1377 42.9569 39.1548 43.1833C39.0103 43.2426 38.9003 43.2877 38.7846 43.3352C38.8144 43.3768 38.8517 43.457 38.8715 43.4527C39.1065 43.4044 39.339 43.3434 39.6247 43.2728C39.7056 43.4154 39.8043 43.589 39.9037 43.7636C39.8504 43.8229 39.7869 43.8932 39.7184 43.9691C39.7589 44.2495 40.096 44.4969 39.8352 44.8181C39.7592 44.7496 39.6918 44.6886 39.6229 44.6257C39.591 44.6857 39.5289 44.7493 39.5416 44.7894C39.5771 44.9029 39.6435 45.0069 39.718 45.1539C39.6648 45.6455 39.2719 45.972 38.9074 46.3038C38.5624 46.618 38.183 46.8937 37.7393 47.2497C37.9217 47.3544 38.0804 47.446 38.2589 47.5489C38.1475 47.763 38.08 47.8921 38.0091 48.0277C38.0502 48.0735 38.112 48.141 38.2078 48.2467C37.9973 48.2804 37.8199 48.3092 37.5654 48.3507C37.6346 48.5271 37.6939 48.6772 37.7624 48.8515H37.1178C36.9982 49.0968 36.8939 49.3108 36.7945 49.5145C36.8868 49.6139 36.9514 49.6835 37.0444 49.7836C36.8467 49.8201 36.6696 49.8531 36.4119 49.9014C36.4744 50.0661 36.5315 50.2144 36.5986 50.3908C36.4332 50.4153 36.255 50.4416 36.0229 50.4757C36.091 50.6595 36.1464 50.8086 36.238 51.0556C35.986 50.9577 35.8025 50.8863 35.581 50.8004C35.4767 50.9992 35.3702 51.2022 35.2665 51.3995C35.3034 51.4698 35.318 51.5468 35.3617 51.5706C35.4387 51.6125 35.5427 51.6047 35.619 51.6473C35.9153 51.8127 35.9846 52.196 36.2759 52.3603C36.5901 52.5378 36.7267 52.8423 36.9269 53.1135C37.1072 53.3577 37.241 53.5635 37.2208 53.8727C37.2137 53.9784 37.3081 54.0906 37.3666 54.223C37.3155 54.3099 37.2424 54.4338 37.1427 54.6035C36.8811 54.6336 36.6909 54.984 36.2135 54.799C35.3798 54.4757 34.512 54.1861 33.6065 54.0771C33.5561 54.0711 33.5146 53.9909 33.4323 53.9085C33.1675 54.207 32.9045 54.5034 32.5744 54.8757C32.5701 54.9108 32.5524 55.0631 32.5329 55.2274C32.3476 55.2565 32.1701 55.2846 31.8944 55.3279C32.0764 55.5834 32.2124 55.7744 32.415 56.059C32.1861 55.992 32.0335 55.9476 31.8397 55.8908C31.7996 55.9384 31.7183 56.0345 31.6299 56.1389C31.7421 56.4487 31.652 56.6383 31.2889 56.8445C31.1803 57.2349 31.0759 57.6101 30.9889 57.9231C30.825 57.9834 30.7334 58.0172 30.6152 58.0608L30.8271 58.2727C30.5378 58.4942 30.206 58.6734 29.9817 58.9425C29.779 59.1849 29.6945 59.5256 29.5369 59.8692C29.5522 59.8926 29.6157 59.9877 29.7165 60.1386C29.5032 60.3583 29.2938 60.5741 29.0922 60.7813C29.1707 60.8793 29.2285 60.9514 29.3286 61.0763C29.1863 61.2388 29.0464 61.3986 28.8906 61.5764V62.1407C28.662 62.3608 28.4303 62.584 28.2514 62.7562Z" fill="#FFDE59" fill-opacity="0.6"/>
<path fill-rule="evenodd" clip-rule="evenodd" d="M52.0552 66.6135C52.5024 67.1544 52.5027 67.1554 53.0454 66.8555C53.0607 67.0287 53.0553 67.1796 53.0926 67.3187C53.1192 67.4174 53.203 67.5008 53.2569 67.5846C53.1881 67.6538 53.1423 67.6992 53.0841 67.7574C53.2193 67.8206 53.3485 67.8813 53.5601 67.9803C53.34 68.2937 53.1324 68.589 52.9251 68.8847C53.1923 69.3652 52.6269 69.4504 52.5457 69.7077C52.4204 70.1052 51.937 70.1908 51.9231 70.6156C51.9072 71.1111 51.3989 71.1722 51.1781 71.4607C50.9865 71.7117 50.6457 71.8756 50.6017 72.1958C50.678 72.3264 50.7384 72.4297 50.8374 72.5997C50.551 72.7615 50.3015 72.9031 50.0512 73.0448L49.4475 73.3301C49.264 73.5466 49.0805 73.7631 48.8353 74.052V74.2419C48.2173 74.6959 47.6402 75.1207 46.9701 75.6134C47.1618 75.711 47.2778 75.7702 47.4702 75.8686C47.204 76.2409 46.9346 76.6178 46.645 77.0228C47.3886 77.2762 48.0881 77.5151 48.8097 77.7614C48.7384 77.9048 48.678 78.0258 48.5964 78.1898C48.918 78.3044 49.2186 78.4116 49.5618 78.5341V78.955C49.7776 79.1534 49.9668 79.327 50.1627 79.5073C50.1748 79.7348 50.1858 79.952 50.1968 80.1596L50.5478 80.5103L49.6573 81.2514C49.4475 81.4849 49.2289 81.4416 48.9939 81.2858C48.9226 81.2386 48.8225 81.2116 48.7359 81.2134C47.7364 81.2354 46.8331 80.8549 45.9238 80.5224C45.253 80.2775 44.6074 79.9641 43.9117 79.6645C43.7218 79.8537 43.4262 79.9971 43.3882 80.3875C42.9864 80.4826 42.5743 80.5806 42.1889 80.6718C41.9901 80.4706 41.8315 80.3101 41.6725 80.149C41.7328 80.0823 41.7953 80.0134 41.8875 79.9115C41.7917 79.7121 41.6884 79.4973 41.6267 79.3696C41.3275 79.4157 41.0627 79.4569 40.8043 79.4966C40.6613 79.2141 40.5328 78.9589 40.4011 78.698C40.3369 78.7623 40.2914 78.8077 40.2748 78.8244C40.0607 78.6068 39.8449 78.3878 39.5468 78.0854C39.6394 77.4139 39.2096 76.6427 39.325 75.8089C39.3495 75.6343 39.2157 75.3816 39.0747 75.2496C38.5037 74.7136 38.4792 73.9392 38.2109 73.2801C38.1083 73.0284 37.999 72.709 37.9901 72.4048C37.9752 71.9218 37.9187 71.4256 38.0014 70.9564C38.1321 70.2142 38.2726 69.4227 39.1369 69.1306C39.4226 69.0341 39.737 69.0234 40.1136 68.961V70.4705C40.4412 70.2596 40.6606 70.1184 40.9878 69.9076C41.0332 70.041 41.0879 70.2 41.1418 70.359C41.1905 70.3221 41.2391 70.2852 41.2877 70.2483V71.1388C41.4542 71.0543 41.5745 70.9933 41.6881 70.9354C42.0987 71.2946 42.0881 71.7546 42.0313 72.2277C42.1687 72.2763 42.2805 72.3157 42.4597 72.3793C42.3834 72.5865 42.3071 72.7924 42.2148 73.0412C42.3266 73.021 42.3827 73.027 42.4139 73.0018C42.4892 72.9422 42.541 72.8357 42.6233 72.8045C43.4499 72.4904 43.8659 71.6116 44.6957 71.306C44.8626 70.7051 45.4961 70.5769 45.8663 70.172C46.2514 69.751 46.7948 69.477 47.2594 69.126C47.7091 68.786 47.9625 68.2131 48.5492 68.0332C48.9346 67.3315 49.4894 66.7998 50.1797 66.403C50.1556 65.9278 50.8094 65.8688 50.7941 65.3677H51.6669C51.7293 65.4298 51.8206 65.521 51.9118 65.6122C51.494 65.8202 51.3414 66.2238 51.0741 66.6504C51.6523 66.77 51.9852 66.0662 52.5301 66.3909C52.3725 66.4648 52.2436 66.5251 52.0552 66.6135Z" fill="#FFDE59" fill-opacity="0.6"/>
<path fill-rule="evenodd" clip-rule="evenodd" d="M49.8107 56.3824C49.7657 55.9298 50.4024 55.8801 50.1007 55.4585C50.0237 55.5273 49.9552 55.588 49.8867 55.6487C49.864 55.6257 49.8246 55.6054 49.8207 55.5799C49.749 55.1057 49.7777 54.656 50.1142 54.2695C50.4844 53.845 50.8514 53.4169 51.2063 52.9797C51.3185 52.8416 51.3877 52.6687 51.4981 52.4742C51.3227 52.0175 51.0825 51.544 50.8738 51.0734C50.6498 50.5679 50.6548 50.0199 50.4113 49.5198C50.2817 49.2543 50.6196 48.7883 50.5405 48.4632C50.4514 48.0994 50.2367 47.7899 50.5504 47.4471C50.5568 46.488 51.2088 45.8903 51.7792 45.2245H53.3916C53.486 45.3139 53.5794 45.4027 53.7306 45.5457C53.4853 45.8584 53.2397 46.1711 52.9682 46.5171C52.9984 46.5817 53.0711 46.7361 53.1684 46.9431C53.2592 46.9431 53.4331 46.9952 53.4953 46.9338C53.7646 46.6694 54.0759 46.7762 54.3595 46.745C54.4642 46.9718 54.5515 47.1613 54.6488 47.3718C54.5032 47.5535 54.3531 47.7413 54.1252 48.0256C54.4699 48.0696 54.7009 48.0991 55.0048 48.1377V49.0655C55.6585 49.0868 55.7302 48.295 56.2807 48.2982C56.5306 47.9177 56.8951 47.6529 57.2234 47.3495C57.6021 46.9998 57.9624 46.6293 58.3194 46.257C58.6481 45.9138 58.9817 45.572 59.277 45.2014C59.5808 44.8195 59.8421 44.4036 60.0178 44.1516C60.4178 44.0082 60.6431 43.9272 60.9228 43.8271C61.0144 43.9574 61.1645 44.0898 61.2029 44.2492C61.2323 44.3716 61.1347 44.5345 61.0691 44.6669C60.9942 44.8174 60.8916 44.9537 60.8927 45.2185C61.1748 45.0996 61.457 44.9803 61.7675 44.8493C61.9333 45.1723 62.1108 45.518 62.3798 46.0423C62.3798 46.0312 62.3642 46.2218 62.3851 46.4082C62.4015 46.553 62.4629 46.6928 62.5172 46.8785C62.4788 46.9452 62.4085 47.0687 62.3436 47.183C62.4412 47.2884 62.5062 47.3583 62.564 47.4204C62.0032 48.3184 61.4985 49.248 60.8834 50.1172C60.367 50.8469 60.4394 50.898 60.0611 51.1046C60.1214 51.1717 60.1824 51.2391 60.2314 51.2934C59.4655 52.1516 58.7059 53.0031 57.935 53.8673V54.1885C58.5405 54.5744 59.1265 54.9474 59.7391 55.3375C59.6504 55.5114 59.5961 55.6178 59.5123 55.7829C59.7441 55.982 59.8999 56.365 60.3485 56.2237C60.4469 56.4189 60.5271 56.5783 60.6059 56.7352C60.5494 56.8139 60.4792 56.9116 60.383 57.0454C60.6257 57.2885 60.8437 57.5068 61.0793 57.7428C60.9895 57.9739 60.9132 58.1708 60.8284 58.3891C60.8905 58.4956 60.9651 58.6241 61.0339 58.7423C60.9998 58.8157 60.9892 58.8917 60.947 58.9197C60.8518 58.9818 60.712 58.9939 60.6424 59.0727C60.2261 59.5426 60.1516 59.5689 59.628 59.39C58.9501 59.1582 58.2211 59.022 57.6018 58.6837C56.7719 58.2308 56.0262 57.6239 55.1691 57.0308C54.8092 57.297 54.4053 57.6622 54.0163 58.0778C53.6401 58.48 53.1442 58.7987 52.455 59.0039C52.5763 58.8033 52.626 58.7213 52.7336 58.5424C52.3016 58.623 51.9393 58.6905 51.5772 58.7579L51.5151 58.6333C51.733 58.4633 51.9506 58.2936 52.1685 58.124L51.8317 57.7872H51.1708C51.0828 57.566 50.9849 57.3183 50.8691 57.0273H50.067C49.9566 56.7494 49.8576 56.5002 49.8107 56.3824Z" fill="#FFDE59" fill-opacity="0.6"/>
<path fill-rule="evenodd" clip-rule="evenodd" d="M54.009 37.3893C53.6768 37.4688 53.384 37.5391 52.9708 37.6381C52.5467 37.3247 52.0395 36.9343 51.516 36.568C50.8917 36.1311 50.3493 35.5746 49.6366 35.2669C49.4716 35.1955 49.2984 35.1441 49.0691 35.0617C48.7912 34.6454 48.7589 33.8724 47.9436 33.9575C47.5749 33.6204 47.5298 33.0347 46.9906 32.9779C46.8142 32.6773 46.7028 32.3334 46.471 32.1187C45.413 31.1373 44.6474 29.9586 43.989 28.5364C43.9319 28.0973 43.9315 27.5121 43.8368 26.925C43.6877 26.0004 44.1803 25.2064 44.981 24.6939C45.2022 24.5527 45.3161 24.2421 45.6834 24.2751C45.939 24.2982 46.2087 24.1622 46.5481 24.0788C46.6485 24.1683 46.7816 24.2865 46.9495 24.4355C46.6765 24.8938 46.1605 25.183 46.1214 25.7985C46.7287 26.0011 47.0009 25.3264 47.6121 25.2487C47.6867 25.3154 47.819 25.4332 47.9433 25.5447C47.7268 25.8695 47.5809 26.0881 47.3122 26.4909C47.73 26.3589 48.027 26.3568 48.1367 26.2123C48.4139 25.8467 48.8622 25.7001 49.1223 25.2934C49.3648 24.9147 49.7623 24.6325 50.1687 24.3685C50.7433 23.9954 51.209 23.4591 51.7477 23.0254C52.5396 22.388 53.2817 21.6895 54.1637 21.1596C54.5126 20.9505 54.7707 20.5864 55.0603 20.2829C55.3236 20.0068 55.7421 19.8861 55.8248 19.4744H57.1267V20.3141C57.0905 20.3503 56.9655 20.4753 56.815 20.6261C56.9875 20.5952 57.1597 20.5707 57.3286 20.5324C57.5004 20.4934 57.6694 20.4408 57.9299 20.3695C57.8901 20.9945 57.9203 21.5479 58.3718 21.951C58.2766 22.0792 58.2223 22.1523 58.113 22.3003C58.2507 22.3763 58.4104 22.4636 58.7075 22.6265C58.4016 22.7102 58.2976 22.7386 58.1556 22.7777C58.2096 22.9012 58.282 23.0165 58.3082 23.1418C58.3348 23.2653 58.3143 23.3984 58.3143 23.5252C57.9554 24.0178 57.5962 24.5104 57.2019 25.0513C57.1295 25.0595 56.9769 25.0762 56.7526 25.1007C56.8207 25.1944 56.8626 25.2529 56.9176 25.3289C56.8598 25.4673 56.7955 25.621 56.7235 25.7921C55.8716 25.7509 55.8656 26.6286 55.3389 26.9704C55.4503 27.117 55.5057 27.1898 55.5309 27.2231C55.1806 27.5738 54.8271 27.9273 54.47 28.284C54.4988 28.3103 54.453 28.2688 54.4729 28.2865C54.3139 28.4452 54.1499 28.6091 53.9859 28.7735C53.9327 28.7319 53.8798 28.6908 53.8266 28.6492V29.1589C53.714 29.0663 53.6487 29.0123 53.5021 28.892C53.5344 29.1092 53.5561 29.2537 53.5863 29.4567C53.3446 29.7697 53.0539 30.1463 52.7391 30.5545C52.5974 30.4509 52.5009 30.3795 52.415 30.3163C52.0665 30.7238 51.7091 31.1415 51.3484 31.5632C51.4872 31.6324 51.6154 31.6959 51.802 31.7886C51.6281 32.009 51.4787 32.1985 51.3385 32.3763C51.3612 32.4548 51.3612 32.5272 51.3971 32.5676C51.9866 33.2285 52.6858 33.8195 53.1454 34.5599C53.6633 35.3936 54.3103 36.2543 54.009 37.3893Z" fill="#FFDE59" fill-opacity="0.6"/>
<path fill-rule="evenodd" clip-rule="evenodd" d="M10.8319 12.4591C10.5909 12.489 10.4457 12.5071 10.2626 12.5298C10.374 12.6533 10.4375 12.7232 10.539 12.8357C10.2988 13.2826 9.84339 13.5505 9.5346 13.9413L9.6858 14.0925C9.43983 14.2856 9.19351 14.4787 8.98411 14.643C8.8684 14.9479 9.11543 15.2918 8.70833 15.4806C9.06893 15.7223 9.39866 15.9381 9.72271 16.1617C10.7389 16.8638 11.8257 17.4661 12.6633 18.4116C13.1431 18.9529 13.595 19.4761 13.6035 20.2534C13.6049 20.3843 13.738 20.5135 13.8441 20.7055C13.552 20.8904 13.2784 21.0633 12.9355 21.2802C11.0036 20.1483 9.00647 19.1396 7.17469 17.6613C7.04336 17.7362 6.75658 17.7994 6.7037 17.9467C6.49393 18.5302 6.08293 18.9398 5.66447 19.3575C5.61336 19.4086 5.63252 19.5297 5.61868 19.6191C5.43944 19.639 5.28718 19.6553 5.0547 19.6809C5.09942 19.8338 5.1374 19.9637 5.20377 20.1912C4.8311 20.5032 4.55284 20.9675 4.40625 21.5439C4.32107 21.8786 4.00021 22.1529 3.71272 22.5572V24.6605C3.52958 24.6722 3.37696 24.6818 3.20411 24.6928C3.16684 24.7975 3.12709 24.9096 3.07953 25.0442H2.41227C2.30792 24.7418 2.20108 24.4316 2.07757 24.0741C1.89194 24.1558 1.70667 24.2371 1.48591 24.334C1.44047 24.1934 1.40463 24.0834 1.36878 23.9733C1.31412 23.9506 1.25378 23.9002 1.20445 23.9095C0.794862 23.9872 0.514469 23.6408 0.464069 23.4204C0.258566 22.5231 -0.322096 21.6358 0.235496 20.6725C0.245789 19.7185 0.838163 18.9905 1.17392 18.1607C1.2836 17.8899 1.75494 17.9374 1.62717 17.4697C1.57464 17.2773 1.92389 16.9724 2.09567 16.7222C2.25148 16.4954 2.39807 16.2601 2.57731 16.0531C2.78778 15.81 3.04404 15.6063 3.25274 15.3621C3.42629 15.1584 3.5601 14.9209 3.73011 14.6711C2.55388 13.7876 1.83444 12.5326 1.00995 11.3624C0.745527 10.2302 0.288735 9.13063 0.466908 7.80498C0.739138 7.49229 1.08732 7.09193 1.46177 6.66211C1.87633 6.74729 2.34235 6.49032 2.72105 6.92227C2.47296 7.25661 2.22664 7.58847 1.97784 7.92388C2.04634 7.99628 2.10987 8.06443 2.17269 8.13115C2.69798 8.23976 2.89035 7.47525 3.43907 7.65236C3.52071 7.81065 3.60198 7.96931 3.68717 8.13399C3.51822 8.24225 3.32479 8.36647 3.12177 8.49637C3.24564 8.6206 3.33685 8.71182 3.42807 8.80303C3.70207 8.51945 3.96827 8.5159 4.29019 8.90383C4.26108 9.11998 4.42861 9.43232 4.10527 9.68396C4.23943 9.74856 4.37076 9.81174 4.55851 9.90153C4.40412 10.1092 4.26712 10.293 4.12692 10.4815C4.25754 10.528 4.36969 10.5674 4.6043 10.6508C4.3885 10.709 4.28628 10.7363 4.1074 10.7846C4.12621 10.9418 4.08859 11.1569 4.17803 11.2772C4.54858 11.7756 4.95745 12.2451 5.39579 12.7779C5.63714 12.5614 5.82241 12.4002 6.00165 12.2331C7.06075 11.2456 7.94701 10.0616 9.2606 9.3624C9.2535 8.9986 9.63433 9.02415 9.79831 8.8293C9.98394 8.60889 10.1902 8.40587 10.3232 8.26354H10.9738C10.6789 8.69762 10.1763 8.94287 10.3403 9.56826C10.7605 9.31768 11.1719 9.07242 11.673 8.77393C11.6283 9.06035 11.5935 9.28112 11.5545 9.53205C11.7298 9.62043 11.9903 9.75282 12.27 9.89408C12.198 10.0435 12.1376 10.1681 12.0674 10.314C12.1685 10.3353 12.2565 10.3534 12.3485 10.3725C12.358 10.4101 12.395 10.4744 12.3772 10.4982C12.1415 10.8162 11.826 11.0973 11.6759 11.4497C11.4878 11.892 11.0729 12.0911 10.8319 12.4591Z" fill="#FFDE59" fill-opacity="0.6"/>
<path fill-rule="evenodd" clip-rule="evenodd" d="M28.5006 22.3392C29.2718 21.393 29.9231 20.6065 30.5609 19.8089C31.165 19.0537 31.6814 18.238 32.151 17.4022C32.091 17.328 32.0328 17.2563 31.9331 17.1335C32.097 16.9475 32.2592 16.7629 32.4314 16.5674H33.0692C33.3077 16.8059 33.4997 17.1463 33.7727 17.2332C34.1059 17.339 34.1531 17.6055 34.2877 17.8047C34.754 18.4943 35.0784 19.1942 34.72 20.0929C34.4996 20.6455 34.2763 21.1985 34.047 21.7486C33.9782 21.9144 33.9278 22.0879 33.8401 22.3403L33.3514 22.8294V23.4384C32.9687 24.1316 32.6504 24.7094 32.3018 25.3412C32.7835 25.6684 33.2271 25.984 33.6843 26.2786C34.5901 26.8624 35.3393 27.5875 35.7869 28.5838C35.8831 28.7982 35.9271 29.0363 36.0272 29.371C35.9927 29.4473 35.9086 29.6351 35.8156 29.841C35.6162 29.934 35.4007 30.0344 35.2325 30.1125C34.7775 29.9552 34.375 29.8378 33.9902 29.6777C33.6051 29.518 33.2378 29.3157 32.8626 29.1322C32.7987 28.5717 32.1599 28.7982 31.8969 28.417C31.6811 28.1039 31.2012 27.9737 30.7803 27.7284C29.5189 29.0154 28.4079 30.4213 27.3886 31.902C27.3101 32.0156 27.3353 32.2005 27.3126 32.3521C26.8683 32.6942 26.4289 32.6421 25.988 32.3311V32.0234C25.4152 31.6802 24.8782 31.3586 24.2908 31.0065C24.0097 30.6772 24.1527 30.1597 23.9696 29.7593C23.7655 29.3135 23.938 28.8819 23.8606 28.554C24.5009 27.1268 25.2587 25.8768 26.3437 24.7982V24.1394C25.7165 23.7025 25.3268 23.0214 24.9321 22.3534C24.7997 22.1295 24.7791 21.837 24.7185 21.5736C24.5953 21.0377 24.4111 20.5191 24.4274 19.9498C24.459 18.8609 25.0773 18.084 26.1169 17.6932C26.7724 17.4469 27.4092 17.5708 28.114 17.5016C27.7346 18.287 26.8257 18.2199 26.2943 18.8783C27.2108 18.8379 27.7691 17.9747 28.7036 18.1394C28.6674 18.3594 28.6312 18.5798 28.5928 18.8119C28.7643 18.8723 29.0159 18.9614 29.258 19.0473V20.2764C29.0088 20.7112 28.7352 21.1449 28.5119 21.6034C28.4399 21.7507 28.5006 21.963 28.5006 22.3392Z" fill="#FFDE59" fill-opacity="0.6"/>
<path fill-rule="evenodd" clip-rule="evenodd" d="M44.858 10.2901C44.4956 10.7444 44.1648 11.1596 43.7989 11.6182V12.8601C43.4585 12.9967 43.1273 13.1302 42.7532 13.2803C42.311 12.8509 42.1318 12.2812 41.9901 11.7428C41.8006 11.8134 41.6331 11.8755 41.3843 11.9678C41.1891 11.6871 40.9516 11.439 40.8235 11.1437C40.4402 10.2588 40.4707 9.31401 40.5126 8.42492C40.6734 8.05863 40.8168 7.73139 40.9956 7.32287C40.728 7.28276 40.4909 7.32003 40.3926 7.22065C39.7672 6.58852 39.15 5.94539 38.5768 5.26642C38.268 4.90013 37.9422 4.48593 37.819 4.03979C37.6394 3.38672 37.6352 2.68538 37.5504 1.95601C37.8449 1.54181 38.0845 1.05662 38.4586 0.722278C38.8025 0.41491 39.2916 0.2701 39.8219 0C39.9454 0.133808 40.0657 0.263356 40.1875 0.395034C40.1165 0.46318 39.1713 1.37357 39.1713 1.37357C39.2395 1.44207 39.308 1.51057 39.4088 1.61102C39.8414 1.29549 40.2723 0.882705 40.9758 1.15493C40.8011 1.39416 40.6652 1.58014 40.4263 1.90703C40.7493 1.78103 40.9296 1.71111 41.1795 1.61386C41.2973 1.79132 41.4237 1.98192 41.577 2.21333C41.3101 2.48059 41.1003 2.69035 40.8473 2.94377C41.0105 2.97713 41.0986 2.99559 41.2448 3.02576C41.0254 3.39559 41.1493 3.90704 40.5839 4.09586C41.1451 4.7862 41.7697 5.16668 42.4036 5.58762C44.5375 3.81831 46.6248 2.08733 48.7402 0.333277H49.674C49.5103 0.66123 49.3804 0.922812 49.2488 1.18759C49.5292 1.40161 49.751 1.16132 49.9994 1.05343C50.7171 1.72317 50.886 2.55938 50.7384 3.49213C50.4403 3.87474 50.134 4.26765 49.8213 4.66872C49.8415 4.68717 49.888 4.73047 50.0158 4.84867C49.8436 4.87067 49.6779 4.89197 49.5118 4.91326C49.5767 4.98283 49.6417 5.05275 49.7066 5.12267H49.3464C48.683 6.37095 47.5618 7.22029 46.7408 8.35748C47.866 8.98428 49.1249 9.45066 50.3153 10.1602C50.3515 10.339 50.3923 10.5421 50.4403 10.782C50.5865 10.6272 50.6962 10.5112 50.8019 10.3994C51.2811 10.464 51.2711 11.0148 51.6733 11.2164C52.0254 11.3932 52.2309 11.8624 52.5049 12.2067V13.3559C52.4119 13.4489 52.3207 13.5401 52.1929 13.6679C51.1963 13.5614 50.3721 12.9935 49.4646 12.5343C49.4461 12.5509 49.3787 12.612 49.3492 12.6386C48.7142 12.4817 48.3355 11.8003 47.603 11.9021C47.2615 11.4631 46.7 11.429 46.2621 11.1703C45.8195 10.9091 45.3907 10.6255 44.858 10.2901Z" fill="#FFDE59" fill-opacity="0.6"/>
<path fill-rule="evenodd" clip-rule="evenodd" d="M14.8327 35.6962C14.942 35.8056 15.0332 35.8968 15.1624 36.026C14.5694 36.5332 13.9795 37.0372 13.3899 37.5415C13.4031 37.5756 13.4166 37.6096 13.43 37.6434C13.5553 37.6068 13.7083 37.6036 13.7995 37.527C13.9699 37.3843 14.104 37.1994 14.3379 37.1532C14.7514 36.92 15.1649 36.6865 15.5671 36.4593C15.9177 36.7429 15.6618 36.9669 15.511 37.3108C15.7406 37.2238 15.8893 37.1674 16.0494 37.1064C16.1193 37.1763 16.2105 37.2675 16.3021 37.3591C16.3025 37.7456 16.3025 38.1325 16.3025 38.5239C16.1896 38.634 16.0746 38.7468 15.9529 38.8654C15.9706 38.9101 15.9752 38.9719 16.0082 38.996C16.2283 39.161 16.448 39.3282 16.6801 39.4751C16.9296 39.6327 17.2789 39.6782 17.2885 40.0817C17.2895 40.1282 17.3683 40.1807 17.4201 40.2173C17.6193 40.3575 17.8524 40.4636 18.0146 40.6372C18.1765 40.81 18.2684 41.0482 18.432 41.3279C18.432 41.4915 18.432 41.7495 18.4317 42.0072C18.2716 42.1669 18.1122 42.3266 17.9788 42.4601C16.7582 42.0239 15.5518 41.593 14.3458 41.1621C14.0778 41.3052 13.7892 41.4588 13.5003 41.6125C13.4882 41.593 13.4762 41.5735 13.4641 41.554C13.2132 41.8045 12.9622 42.0555 12.6417 42.376C12.6371 42.4523 12.6279 42.6021 12.6162 42.793C12.1079 43.2817 11.5759 43.7939 11.1468 44.207C10.9314 44.8754 11.0407 45.5618 10.1502 45.7027C9.96595 45.4081 9.30436 45.3609 9.45521 44.6741C9.27206 44.6212 9.04704 44.5556 8.80178 44.4846C8.74642 44.5219 8.64668 44.5886 8.56895 44.6404C8.31979 44.3771 8.10222 44.1463 7.78598 43.8117C7.71535 43.2079 7.62484 42.4352 7.52972 41.6221C8.33364 40.7529 9.12583 39.8964 9.9663 38.9875C9.63764 38.7816 9.29868 38.6095 9.00835 38.377C8.70808 38.1364 8.45502 37.8368 8.17356 37.5553C8.25129 37.3044 8.33044 37.0485 8.41562 36.772C8.25804 36.7181 8.14552 36.6794 8.00568 36.6311V35.9773C8.05963 35.923 8.12813 35.8549 8.20728 35.7754C8.48412 35.7204 8.77481 35.6625 9.134 35.5908C10.0902 36.1275 11.1358 36.7142 12.153 37.2845C13.1731 36.8966 13.8343 36.0018 14.8327 35.6962Z" fill="#FFDE59" fill-opacity="0.6"/>
</svg>
