<svg width="68" height="68" viewBox="0 0 68 68" fill="none" xmlns="http://www.w3.org/2000/svg">
<path opacity="0.3" d="M41.3779 0C55.5834 3.85013e-05 67.0996 11.5162 67.0996 25.7217V41.3779C67.0996 55.5834 55.5834 67.0996 41.3779 67.0996H25.7217C11.5162 67.0996 3.63423e-05 55.5834 0 41.3779V25.7217C0 11.5162 11.5162 0 25.7217 0H41.3779Z" fill="#FF9066"/>
<path opacity="0.78" fill-rule="evenodd" clip-rule="evenodd" d="M32.0187 26.6257C32.0411 26.3343 32.284 26.1094 32.5762 26.1094H33.0435C33.3307 26.1094 33.5713 26.3271 33.5999 26.6129L34.2951 33.5648L39.2321 36.386C39.4064 36.4856 39.5139 36.6709 39.5139 36.8715V37.306C39.5139 37.6747 39.1633 37.9425 38.8076 37.8455L31.7587 35.9231C31.4999 35.8525 31.3277 35.6082 31.3483 35.3407L32.0187 26.6257Z" fill="#FF9066"/>
<path opacity="0.901274" fill-rule="evenodd" clip-rule="evenodd" d="M24.438 16.9867C24.5446 16.5398 25.1143 16.4054 25.4097 16.7572L27.4214 19.1547C29.3037 18.3532 31.3744 17.9086 33.5493 17.9086L33.9536 17.9135C42.4137 18.1278 49.2056 25.0531 49.2056 33.5648C49.2055 42.2116 42.1961 49.2211 33.5493 49.2211C24.9026 49.221 17.8931 42.2115 17.8931 33.5648C17.8931 32.0965 18.0952 30.6752 18.4731 29.3275L21.3442 30.1322C21.034 31.2384 20.8755 32.3897 20.8755 33.5648C20.8756 40.5645 26.5496 46.2385 33.5493 46.2387C40.5491 46.2387 46.2241 40.5646 46.2241 33.5648C46.2241 26.565 40.5491 20.89 33.5493 20.89C32.1308 20.8901 30.7495 21.1235 29.4468 21.5687L31.4614 23.9691C31.7573 24.3217 31.5245 24.8611 31.0649 24.8871L23.187 25.3334C22.8132 25.3546 22.524 25.0091 22.6108 24.6449L24.438 16.9867Z" fill="#FF9066"/>
</svg>
