<svg width="55" height="48" viewBox="0 0 55 48" fill="none" xmlns="http://www.w3.org/2000/svg">
<path opacity="0.21" d="M30.4189 0C43.4507 0.000180827 54.0146 10.5648 54.0146 23.5967C54.0145 36.6284 43.4507 47.1932 30.4189 47.1934H23.5967C10.5648 47.1934 0.000127828 36.6285 0 23.5967C0 10.5647 10.5647 0 23.5967 0H30.4189Z" fill="#4AD991"/>
<path d="M17.2048 32.1613H38.2107C38.9841 32.1613 39.6111 32.7091 39.6111 33.3848C39.6111 34.0605 38.9841 34.6083 38.2107 34.6083H15.8044C15.031 34.6083 14.4041 34.0605 14.4041 33.3848V13.8085C14.4041 13.1327 15.031 12.585 15.8044 12.585C16.5779 12.585 17.2048 13.1327 17.2048 13.8085V32.1613Z" fill="#4AD991"/>
<path opacity="0.5" d="M22.4275 26.8807C21.8986 27.3737 21.0123 27.3986 20.4481 26.9365C19.8839 26.4743 19.8553 25.7 20.3843 25.2071L25.6357 20.313C26.1473 19.8362 26.9974 19.7949 27.5664 20.2191L31.7112 23.3093L37.1114 17.3329C37.5907 16.8025 38.4713 16.712 39.0783 17.1307C39.6854 17.5494 39.789 18.3188 39.3097 18.8491L33.008 25.8232C32.5157 26.3679 31.6041 26.4463 30.9998 25.9958L26.7649 22.8385L22.4275 26.8807Z" fill="#4AD991"/>
</svg>
