<svg width="55" height="44" viewBox="0 0 55 44" fill="none" xmlns="http://www.w3.org/2000/svg">
<path opacity="0.21" d="M32.7656 0C44.9159 0 54.7656 9.84974 54.7656 22C54.7656 34.1503 44.9159 44 32.7656 44H22C9.84974 44 0 34.1503 0 22C0 9.84974 9.84974 0 22 0H32.7656Z" fill="#8280FF"/>
<path opacity="0.587821" d="M34.6852 18.0896C36.7016 18.0896 38.3365 19.4023 38.3366 21.0222C38.3366 22.6422 36.7016 23.9558 34.6852 23.9558C32.6688 23.9558 31.0339 22.6423 31.0339 21.0222C31.034 19.4023 32.6689 18.0896 34.6852 18.0896ZM23.7321 13.2C26.4207 13.2 28.6003 14.9511 28.6003 17.1111C28.6003 19.2711 26.4207 21.0222 23.7321 21.0222C21.0436 21.0222 18.864 19.2711 18.864 17.1111C18.864 14.951 21.0435 13.2 23.7321 13.2Z" fill="#8280FF"/>
<path d="M23.7112 22.9778C29.5381 22.9778 34.3262 25.2201 34.6829 30.0178C34.6971 30.2091 34.6818 30.8 33.7678 30.8H13.6643C13.3591 30.8 12.7538 30.271 12.7795 30.0168C13.2513 25.3504 17.9653 22.9779 23.7112 22.9778ZM34.1995 24.9348C38.3453 24.9712 41.7308 26.6541 41.9856 30.2131C41.9958 30.3565 41.9852 30.7998 41.3254 30.8H36.6321C36.6321 28.5993 35.7267 26.5688 34.1995 24.9348Z" fill="#8280FF"/>
</svg>
