<svg width="358" height="24" viewBox="0 0 358 24" fill="none" xmlns="http://www.w3.org/2000/svg">
<path d="M29.9847 6L34.2763 8.29L25.1309 13.17L17.6347 9.17L3.74805 16.59L6.39045 18L17.6347 12L25.1309 16L36.9374 9.71L41.229 12V6H29.9847Z" fill="#00B69B"/>
<path d="M64.7695 17.144C63.4788 17.144 62.4708 16.8667 61.7455 16.312C61.0308 15.7573 60.6735 14.984 60.6735 13.992C60.6735 13.4587 60.7801 12.9893 60.9935 12.584C61.2068 12.168 61.5055 11.832 61.8895 11.576C62.2735 11.32 62.7161 11.16 63.2175 11.096V11.384C62.7588 11.288 62.3588 11.112 62.0175 10.856C61.6761 10.5893 61.4095 10.264 61.2175 9.88C61.0361 9.48533 60.9455 9.05333 60.9455 8.584C60.9455 7.64533 61.2921 6.90933 61.9855 6.376C62.6788 5.84267 63.6068 5.576 64.7695 5.576C65.9428 5.576 66.8761 5.84267 67.5695 6.376C68.2628 6.90933 68.6095 7.64533 68.6095 8.584C68.6095 9.05333 68.5135 9.48533 68.3215 9.88C68.1401 10.264 67.8788 10.5893 67.5375 10.856C67.1961 11.112 66.7961 11.2827 66.3375 11.368V11.096C66.8495 11.16 67.2921 11.3253 67.6655 11.592C68.0388 11.848 68.3321 12.1787 68.5455 12.584C68.7588 12.9893 68.8655 13.4587 68.8655 13.992C68.8655 14.984 68.5028 15.7573 67.7775 16.312C67.0628 16.8667 66.0601 17.144 64.7695 17.144ZM64.7695 15.832C65.6121 15.832 66.2468 15.672 66.6735 15.352C67.1001 15.0213 67.3135 14.5307 67.3135 13.88C67.3135 13.2293 67.1001 12.744 66.6735 12.424C66.2468 12.104 65.6121 11.944 64.7695 11.944C63.9375 11.944 63.3028 12.104 62.8655 12.424C62.4388 12.744 62.2255 13.2293 62.2255 13.88C62.2255 14.5307 62.4388 15.0213 62.8655 15.352C63.3028 15.672 63.9375 15.832 64.7695 15.832ZM64.7695 10.632C65.4841 10.632 66.0388 10.4667 66.4335 10.136C66.8388 9.79467 67.0415 9.33067 67.0415 8.744C67.0415 8.168 66.8388 7.71467 66.4335 7.384C66.0388 7.05333 65.4841 6.888 64.7695 6.888C64.0548 6.888 63.5001 7.05333 63.1055 7.384C62.7108 7.71467 62.5135 8.168 62.5135 8.744C62.5135 9.33067 62.7108 9.79467 63.1055 10.136C63.5001 10.4667 64.0548 10.632 64.7695 10.632ZM70.5072 17V15.096H72.4112V17H70.5072ZM78.3361 17.144C77.8454 17.144 77.3654 17.0907 76.8961 16.984C76.4374 16.8773 76.0054 16.728 75.6001 16.536C75.1948 16.344 74.8428 16.1093 74.5441 15.832L75.1041 14.552C75.6161 14.9573 76.1334 15.256 76.6561 15.448C77.1788 15.64 77.7281 15.736 78.3041 15.736C79.0401 15.736 79.6161 15.5387 80.0321 15.144C80.4481 14.7493 80.6561 14.2213 80.6561 13.56C80.6561 12.888 80.4588 12.3387 80.0641 11.912C79.6694 11.4853 79.1201 11.272 78.4161 11.272C77.9148 11.272 77.4668 11.3733 77.0721 11.576C76.6881 11.7787 76.3414 12.088 76.0321 12.504H74.8801V5.72H81.6001V7.112H76.4961V11.176H76.0481C76.3361 10.7707 76.7148 10.456 77.1841 10.232C77.6641 10.008 78.1921 9.896 78.7681 9.896C79.4828 9.896 80.1014 10.0453 80.6241 10.344C81.1468 10.6427 81.5521 11.064 81.8401 11.608C82.1281 12.1413 82.2721 12.7653 82.2721 13.48C82.2721 14.2053 82.1121 14.8453 81.7921 15.4C81.4721 15.944 81.0188 16.3707 80.4321 16.68C79.8454 16.9893 79.1468 17.144 78.3361 17.144ZM87.6899 17.416L86.6019 16.776L93.2099 5.304L94.2979 5.944L87.6899 17.416ZM86.5379 12.472C85.9619 12.472 85.4605 12.3333 85.0339 12.056C84.6179 11.7787 84.2979 11.384 84.0739 10.872C83.8605 10.3493 83.7539 9.73067 83.7539 9.016C83.7539 7.93867 83.9992 7.096 84.4899 6.488C84.9912 5.88 85.6739 5.576 86.5379 5.576C87.1139 5.576 87.6099 5.71467 88.0259 5.992C88.4419 6.25867 88.7619 6.648 88.9859 7.16C89.2099 7.672 89.3219 8.29067 89.3219 9.016C89.3219 9.73067 89.2099 10.3493 88.9859 10.872C88.7725 11.384 88.4579 11.7787 88.0419 12.056C87.6259 12.3333 87.1245 12.472 86.5379 12.472ZM86.5379 11.336C86.9859 11.336 87.3325 11.144 87.5779 10.76C87.8339 10.376 87.9619 9.79467 87.9619 9.016C87.9619 8.23733 87.8339 7.656 87.5779 7.272C87.3325 6.888 86.9859 6.696 86.5379 6.696C86.0899 6.696 85.7379 6.888 85.4819 7.272C85.2365 7.64533 85.1139 8.22667 85.1139 9.016C85.1139 9.80533 85.2365 10.392 85.4819 10.776C85.7379 11.1493 86.0899 11.336 86.5379 11.336ZM94.3619 17.144C93.7859 17.144 93.2899 17.0107 92.8739 16.744C92.4579 16.4667 92.1379 16.072 91.9139 15.56C91.7005 15.0373 91.5939 14.4133 91.5939 13.688C91.5939 12.6213 91.8392 11.784 92.3299 11.176C92.8205 10.5573 93.4979 10.248 94.3619 10.248C94.9485 10.248 95.4499 10.3867 95.8659 10.664C96.2819 10.9413 96.5965 11.336 96.8099 11.848C97.0339 12.36 97.1459 12.9733 97.1459 13.688C97.1459 14.4133 97.0339 15.0373 96.8099 15.56C96.5965 16.072 96.2819 16.4667 95.8659 16.744C95.4499 17.0107 94.9485 17.144 94.3619 17.144ZM94.3619 16.024C94.8099 16.024 95.1565 15.832 95.4019 15.448C95.6579 15.0533 95.7859 14.4667 95.7859 13.688C95.7859 12.92 95.6579 12.344 95.4019 11.96C95.1565 11.576 94.8099 11.384 94.3619 11.384C93.9245 11.384 93.5779 11.576 93.3219 11.96C93.0659 12.3333 92.9379 12.9093 92.9379 13.688C92.9379 14.4773 93.0659 15.064 93.3219 15.448C93.5779 15.832 93.9245 16.024 94.3619 16.024Z" fill="#00B69B"/>
<path d="M103.485 17V5.72H104.877L109.309 13.976H108.813L113.213 5.72H114.573V17H113.085V8.072H113.437L109.549 15.272H108.541L104.605 8.056H104.989V17H103.485ZM119.555 17.144C119.011 17.144 118.52 17.0373 118.083 16.824C117.656 16.6107 117.32 16.3227 117.075 15.96C116.829 15.5973 116.707 15.1867 116.707 14.728C116.707 14.152 116.851 13.6987 117.139 13.368C117.437 13.0267 117.923 12.7867 118.595 12.648C119.277 12.4987 120.195 12.424 121.347 12.424H122.099V13.416H121.363C120.787 13.416 120.301 13.4373 119.907 13.48C119.512 13.5227 119.197 13.592 118.963 13.688C118.728 13.7733 118.557 13.896 118.451 14.056C118.355 14.216 118.307 14.408 118.307 14.632C118.307 15.0373 118.445 15.368 118.723 15.624C119 15.8693 119.384 15.992 119.875 15.992C120.269 15.992 120.616 15.9013 120.915 15.72C121.213 15.528 121.448 15.272 121.619 14.952C121.8 14.632 121.891 14.264 121.891 13.848V12.008C121.891 11.4 121.763 10.9627 121.507 10.696C121.251 10.4293 120.829 10.296 120.243 10.296C119.795 10.296 119.347 10.3653 118.899 10.504C118.451 10.632 117.992 10.84 117.523 11.128L117.027 9.992C117.304 9.8 117.624 9.63467 117.987 9.496C118.349 9.35733 118.728 9.25067 119.123 9.176C119.528 9.09067 119.917 9.048 120.291 9.048C121.005 9.048 121.592 9.16 122.051 9.384C122.52 9.608 122.867 9.94933 123.091 10.408C123.315 10.8667 123.427 11.4587 123.427 12.184V17H121.907V15.256H122.051C121.965 15.6507 121.805 15.992 121.571 16.28C121.347 16.5573 121.064 16.7707 120.723 16.92C120.381 17.0693 119.992 17.144 119.555 17.144ZM125.508 7.384V5.704H127.396V7.384H125.508ZM125.652 17V9.192H127.268V17H125.652ZM132.279 17.144C131.863 17.144 131.458 17.1067 131.063 17.032C130.668 16.9573 130.306 16.8507 129.975 16.712C129.644 16.5733 129.351 16.4027 129.095 16.2L129.559 15.112C129.826 15.2933 130.108 15.4533 130.407 15.592C130.706 15.72 131.015 15.816 131.335 15.88C131.666 15.944 131.986 15.976 132.295 15.976C132.86 15.976 133.287 15.8747 133.575 15.672C133.863 15.4693 134.007 15.1973 134.007 14.856C134.007 14.5787 133.911 14.3653 133.719 14.216C133.527 14.056 133.239 13.9333 132.855 13.848L131.335 13.544C130.674 13.4053 130.172 13.16 129.831 12.808C129.49 12.456 129.319 12.008 129.319 11.464C129.319 10.9733 129.452 10.5467 129.719 10.184C129.986 9.82133 130.359 9.544 130.839 9.352C131.319 9.14933 131.874 9.048 132.503 9.048C132.866 9.048 133.218 9.08533 133.559 9.16C133.9 9.23467 134.22 9.34133 134.519 9.48C134.828 9.61867 135.09 9.79467 135.303 10.008L134.839 11.096C134.636 10.9147 134.402 10.76 134.135 10.632C133.879 10.504 133.612 10.408 133.335 10.344C133.058 10.2693 132.78 10.232 132.503 10.232C131.938 10.232 131.511 10.3387 131.223 10.552C130.946 10.7547 130.807 11.032 130.807 11.384C130.807 11.6507 130.892 11.8693 131.063 12.04C131.234 12.2107 131.5 12.3333 131.863 12.408L133.383 12.712C134.076 12.8507 134.599 13.0853 134.951 13.416C135.314 13.7467 135.495 14.1947 135.495 14.76C135.495 15.2507 135.362 15.6773 135.095 16.04C134.828 16.4027 134.45 16.68 133.959 16.872C133.479 17.0533 132.919 17.144 132.279 17.144ZM147.064 19.88V15.272H147.24C147.069 15.8373 146.733 16.2907 146.232 16.632C145.741 16.9733 145.155 17.144 144.472 17.144C143.789 17.144 143.187 16.984 142.664 16.664C142.152 16.3333 141.752 15.864 141.464 15.256C141.176 14.6373 141.032 13.9173 141.032 13.096C141.032 12.2533 141.176 11.5333 141.464 10.936C141.752 10.3387 142.152 9.87467 142.664 9.544C143.187 9.21333 143.789 9.048 144.472 9.048C145.165 9.048 145.757 9.224 146.248 9.576C146.749 9.91733 147.085 10.376 147.256 10.952H147.096V9.192H148.68V19.88H147.064ZM144.888 15.896C145.549 15.896 146.083 15.656 146.488 15.176C146.893 14.696 147.096 14.0027 147.096 13.096C147.096 12.1787 146.893 11.4853 146.488 11.016C146.083 10.5467 145.549 10.312 144.888 10.312C144.216 10.312 143.677 10.5467 143.272 11.016C142.867 11.4853 142.664 12.1787 142.664 13.096C142.664 14.0027 142.867 14.696 143.272 15.176C143.677 15.656 144.216 15.896 144.888 15.896ZM153.733 17.144C153.104 17.144 152.576 17.0267 152.149 16.792C151.733 16.5573 151.419 16.2107 151.205 15.752C151.003 15.2827 150.901 14.696 150.901 13.992V9.192H152.517V14.008C152.517 14.424 152.571 14.7707 152.677 15.048C152.795 15.3253 152.971 15.528 153.205 15.656C153.451 15.784 153.755 15.848 154.117 15.848C154.523 15.848 154.88 15.7573 155.189 15.576C155.499 15.3947 155.739 15.1333 155.909 14.792C156.08 14.4507 156.165 14.056 156.165 13.608V9.192H157.781V17H156.213V15.288H156.421C156.208 15.8853 155.867 16.344 155.397 16.664C154.928 16.984 154.373 17.144 153.733 17.144ZM163.723 17.144C162.869 17.144 162.133 16.984 161.515 16.664C160.907 16.3333 160.432 15.8693 160.091 15.272C159.76 14.664 159.595 13.944 159.595 13.112C159.595 12.3013 159.76 11.592 160.091 10.984C160.421 10.376 160.875 9.90133 161.451 9.56C162.027 9.21867 162.683 9.048 163.419 9.048C164.144 9.048 164.763 9.208 165.275 9.528C165.797 9.83733 166.197 10.28 166.475 10.856C166.752 11.432 166.891 12.12 166.891 12.92V13.464H160.875V12.472H165.803L165.531 12.696C165.531 11.896 165.355 11.2773 165.003 10.84C164.651 10.4027 164.144 10.184 163.483 10.184C162.981 10.184 162.555 10.3013 162.203 10.536C161.861 10.7707 161.6 11.096 161.419 11.512C161.237 11.928 161.147 12.4133 161.147 12.968V13.064C161.147 13.6827 161.243 14.2053 161.435 14.632C161.637 15.048 161.931 15.3627 162.315 15.576C162.699 15.7893 163.173 15.896 163.739 15.896C164.187 15.896 164.624 15.8267 165.051 15.688C165.488 15.5387 165.899 15.3093 166.283 15L166.763 16.12C166.411 16.44 165.957 16.6907 165.403 16.872C164.848 17.0533 164.288 17.144 163.723 17.144ZM176.247 17.144C175.458 17.144 174.775 16.9787 174.199 16.648C173.634 16.3173 173.191 15.848 172.871 15.24C172.551 14.632 172.391 13.9173 172.391 13.096C172.391 12.264 172.551 11.5493 172.871 10.952C173.191 10.344 173.634 9.87467 174.199 9.544C174.775 9.21333 175.458 9.048 176.247 9.048C177.026 9.048 177.698 9.21333 178.263 9.544C178.839 9.87467 179.287 10.344 179.607 10.952C179.927 11.56 180.087 12.2747 180.087 13.096C180.087 13.9173 179.927 14.632 179.607 15.24C179.287 15.848 178.839 16.3173 178.263 16.648C177.698 16.9787 177.026 17.144 176.247 17.144ZM176.231 15.896C176.903 15.896 177.442 15.656 177.847 15.176C178.253 14.696 178.455 14.0027 178.455 13.096C178.455 12.1787 178.253 11.4853 177.847 11.016C177.442 10.5467 176.903 10.312 176.231 10.312C175.57 10.312 175.037 10.5467 174.631 11.016C174.226 11.4853 174.023 12.1787 174.023 13.096C174.023 14.0027 174.226 14.696 174.631 15.176C175.037 15.656 175.57 15.896 176.231 15.896ZM181.902 17V9.192H183.47V10.856H183.294C183.529 10.2587 183.897 9.81067 184.398 9.512C184.9 9.20267 185.476 9.048 186.126 9.048C186.745 9.048 187.257 9.16533 187.662 9.4C188.078 9.624 188.388 9.97067 188.59 10.44C188.793 10.8987 188.894 11.48 188.894 12.184V17H187.278V12.28C187.278 11.832 187.22 11.4693 187.102 11.192C186.985 10.904 186.809 10.6907 186.574 10.552C186.34 10.4133 186.036 10.344 185.662 10.344C185.236 10.344 184.857 10.4347 184.526 10.616C184.206 10.7973 183.956 11.0587 183.774 11.4C183.604 11.7413 183.518 12.136 183.518 12.584V17H181.902ZM194.449 17.144C193.478 17.144 192.748 16.8933 192.257 16.392C191.777 15.8907 191.537 15.1653 191.537 14.216V10.44H190.017V9.192H191.537V6.84H193.153V9.192H195.569V10.44H193.153V14.088C193.153 14.6533 193.27 15.08 193.505 15.368C193.75 15.656 194.145 15.8 194.689 15.8C194.849 15.8 195.009 15.7787 195.169 15.736C195.34 15.6933 195.505 15.6507 195.665 15.608L195.921 16.824C195.761 16.92 195.537 16.9947 195.249 17.048C194.972 17.112 194.705 17.144 194.449 17.144ZM200.551 17.144C199.697 17.144 198.961 16.984 198.343 16.664C197.735 16.3333 197.26 15.8693 196.919 15.272C196.588 14.664 196.423 13.944 196.423 13.112C196.423 12.3013 196.588 11.592 196.919 10.984C197.249 10.376 197.703 9.90133 198.279 9.56C198.855 9.21867 199.511 9.048 200.247 9.048C200.972 9.048 201.591 9.208 202.103 9.528C202.625 9.83733 203.025 10.28 203.303 10.856C203.58 11.432 203.719 12.12 203.719 12.92V13.464H197.703V12.472H202.631L202.359 12.696C202.359 11.896 202.183 11.2773 201.831 10.84C201.479 10.4027 200.972 10.184 200.311 10.184C199.809 10.184 199.383 10.3013 199.031 10.536C198.689 10.7707 198.428 11.096 198.247 11.512C198.065 11.928 197.975 12.4133 197.975 12.968V13.064C197.975 13.6827 198.071 14.2053 198.263 14.632C198.465 15.048 198.759 15.3627 199.143 15.576C199.527 15.7893 200.001 15.896 200.567 15.896C201.015 15.896 201.452 15.8267 201.879 15.688C202.316 15.5387 202.727 15.3093 203.111 15L203.591 16.12C203.239 16.44 202.785 16.6907 202.231 16.872C201.676 17.0533 201.116 17.144 200.551 17.144ZM205.512 17V9.192H207.08V10.856H206.904C207.043 10.472 207.235 10.1467 207.48 9.88C207.726 9.61333 208.019 9.41067 208.36 9.272C208.712 9.12267 209.096 9.048 209.512 9.048C210.163 9.048 210.691 9.20267 211.096 9.512C211.502 9.82133 211.779 10.296 211.928 10.936H211.704C211.907 10.3493 212.254 9.89067 212.744 9.56C213.235 9.21867 213.806 9.048 214.456 9.048C215.054 9.048 215.544 9.16533 215.928 9.4C216.312 9.624 216.6 9.97067 216.792 10.44C216.984 10.8987 217.08 11.48 217.08 12.184V17H215.464V12.264C215.464 11.6027 215.347 11.1173 215.112 10.808C214.888 10.4987 214.515 10.344 213.992 10.344C213.608 10.344 213.272 10.4347 212.984 10.616C212.696 10.7973 212.472 11.064 212.312 11.416C212.163 11.7573 212.088 12.1627 212.088 12.632V17H210.472V12.264C210.472 11.6027 210.36 11.1173 210.136 10.808C209.912 10.4987 209.539 10.344 209.016 10.344C208.622 10.344 208.28 10.4347 207.992 10.616C207.715 10.7973 207.502 11.064 207.352 11.416C207.203 11.7573 207.128 12.1627 207.128 12.632V17H205.512Z" fill="#12163C"/>
</svg>
